<svg width="111" height="111" viewBox="0 0 111 111" fill="none" xmlns="http://www.w3.org/2000/svg">
<rect width="111" height="111" rx="11" fill="#F4F5F5"/>
<path d="M69.9086 76.5H40.8763C37.8656 76.5 35.5 74.1308 35.5 71.1154V69.8231C35.5 64.0077 40.2312 59.0538 46.2527 59.0538H64.7473C70.5538 59.0538 75.5 63.7923 75.5 69.8231V71.1154C75.2849 73.9154 72.7043 76.5 69.9086 76.5Z" stroke="#919191" stroke-width="4" stroke-miterlimit="10" stroke-linecap="round"/>
<path d="M55.2851 50.4385C59.6796 50.4385 63.2421 46.8705 63.2421 42.4692C63.2421 38.0679 59.6796 34.5 55.2851 34.5C50.8906 34.5 47.3281 38.0679 47.3281 42.4692C47.3281 46.8705 50.8906 50.4385 55.2851 50.4385Z" stroke="#919191" stroke-width="4" stroke-miterlimit="10"/>
</svg>
