<svg width="50" height="50" viewBox="0 0 50 50" fill="none" xmlns="http://www.w3.org/2000/svg">
<rect x="1" y="1" width="48" height="48" rx="6" stroke="#02283D" stroke-width="2"/>
<mask id="mask0_1377_12684" style="mask-type:alpha" maskUnits="userSpaceOnUse" x="0" y="0" width="50" height="50">
<rect width="50" height="50" rx="7" fill="#D9D9D9"/>
</mask>
<g mask="url(#mask0_1377_12684)">
<path fill-rule="evenodd" clip-rule="evenodd" d="M25.9004 29.0812L26.5989 28.678C27.0625 28.46 27.9774 27.8294 28.2914 27.7242L35.813 40.8313C35.7741 40.8655 35.7361 40.8962 35.6985 40.9252L33.2671 42.329L33.5337 42.7907L33.8003 43.2525L35.3201 45.8849L37.2528 49.2324L37.8633 50.2897L47.6021 67.1578C48.2917 68.3522 48.7914 69.3813 49.4993 70.4439L52.6915 75.973L57.6979 73.0825L57.7694 73.0427L57.8031 73.0218C57.8456 72.9987 57.8863 72.9752 57.9265 72.9505L62.846 70.1103L59.8501 64.9212L59.7861 64.8104C59.2458 63.7184 58.5438 62.6437 57.9631 61.638L56.9219 59.8495L47.8854 44.1978L47.3871 43.3346L45.2897 39.7019L43.9903 37.4512L43.6091 36.7909L43.4216 36.4663L42.6512 36.9111C42.4181 37.0325 41.4438 37.6023 41.206 37.7455L40.8047 37.9772C40.7116 38.0265 40.6322 38.065 40.5695 38.0852L32.9651 24.9908L33.2633 24.8185C33.4753 24.7049 33.7055 24.5735 33.9093 24.4456L35.4468 23.5579L34.6122 22.1123L34.2588 21.5003L33.523 20.2258L34.7709 19.5053L36.0176 18.7855L36.7535 20.06L37.2544 20.9276L37.5146 21.3784L39.1262 20.4479C39.3348 20.3334 39.5461 20.2113 39.7507 20.0874L39.7668 20.0781L39.7818 20.0694L39.7979 20.0601L39.814 20.0508L39.829 20.0422L39.8451 20.0329L39.8612 20.0236L39.8762 20.0149L39.8923 20.0056L39.9073 19.9969L39.9234 19.9877L39.9385 19.979L39.9535 19.9703L39.9696 19.961L39.9846 19.9523L39.9996 19.9437L40.0157 19.9344L40.0307 19.9257L40.0457 19.917L40.0608 19.9084L40.0758 19.8997L40.0919 19.8904L40.1069 19.8817L40.1219 19.8731L40.137 19.8644L40.152 19.8557L40.167 19.847L40.182 19.8384L40.1981 19.8291L40.2131 19.8204L40.2282 19.8117L40.2432 19.8031L40.2582 19.7944L40.2732 19.7857L40.2882 19.777L40.3033 19.7684L40.3194 19.7591L40.3344 19.7504L40.3494 19.7417L40.3644 19.733L40.3794 19.7244L40.3945 19.7157L40.4106 19.7064L40.4256 19.6977L40.4406 19.6891L40.4556 19.6804L40.4717 19.6711L40.4867 19.6624L40.5018 19.6538L40.5179 19.6445L40.5329 19.6358L40.549 19.6265L40.564 19.6178L40.5801 19.6085L40.5951 19.5999L40.6112 19.5906L40.6262 19.5819L40.6423 19.5726L40.6584 19.5633L40.6745 19.554L40.6895 19.5454L40.7056 19.5361L40.7217 19.5268L40.7378 19.5175L43.2636 18.0592L41.7735 15.4784L41.2777 14.6196C40.7635 13.6968 40.0381 12.4601 39.5559 11.6373L37.7954 8.58816L36.3048 6.00623L33.779 7.46446L33.7704 7.46943L33.7629 7.47376L33.7543 7.47871L33.7457 7.48367C33.5816 7.57845 33.4138 7.66946 33.2522 7.76863L30.5558 9.32537L30.9598 10.0251L31.7444 11.3841L32.4803 12.6586L31.2335 13.3784L29.9856 14.0989L29.2498 12.8244L28.5266 11.5718L28.0612 10.7656L18.5097 16.2802L12.0324 24.2872L7.22121 30.2341L8.17172 31.8804L15.7281 30.6883L25.9004 29.0812Z" fill="#02283D"/>
</g>
</svg>
