<svg width="1920" height="39" viewBox="0 0 1920 39" fill="none" xmlns="http://www.w3.org/2000/svg">
<mask id="mask0_1005_11194" style="mask-type:alpha" maskUnits="userSpaceOnUse" x="0" y="0" width="1921" height="39">
<path d="M0 0H1921V39H0V0Z" fill="#D9D9D9"/>
</mask>
<g mask="url(#mask0_1005_11194)">
<path d="M-320.762 -74.749L-244.523 -89.1374L161.902 140.973C171.514 146.416 170.507 152.488 159.653 154.536L122.72 161.507C111.866 163.555 95.2753 160.804 85.6633 155.362L-320.762 -74.749Z" fill="white"/>
<path d="M-120.195 -74.749L-43.9565 -89.1374L362.469 140.973C372.081 146.416 371.074 152.488 360.22 154.536L323.287 161.507C312.433 163.555 295.842 160.804 286.23 155.362L-120.195 -74.749Z" fill="white"/>
<path d="M80.375 -74.749L156.614 -89.1374L563.039 140.973C572.651 146.416 571.644 152.488 560.79 154.536L523.857 161.507C513.003 163.555 496.412 160.804 486.8 155.362L80.375 -74.749Z" fill="white"/>
<path d="M280.945 -74.749L357.184 -89.1374L763.609 140.973C773.221 146.416 772.214 152.488 761.36 154.536L724.427 161.507C713.573 163.555 696.982 160.804 687.37 155.362L280.945 -74.749Z" fill="white"/>
<path d="M481.516 -74.749L557.754 -89.1374L964.18 140.973C973.792 146.416 972.785 152.488 961.93 154.536L924.998 161.507C914.144 163.555 897.553 160.804 887.941 155.362L481.516 -74.749Z" fill="white"/>
<path d="M682.086 -74.749L758.325 -89.1374L1164.75 140.973C1174.36 146.416 1173.35 152.488 1162.5 154.536L1125.57 161.507C1114.71 163.555 1098.12 160.804 1088.51 155.362L682.086 -74.749Z" fill="white"/>
<path d="M880.84 -74.749L957.079 -89.1374L1363.5 140.973C1373.12 146.416 1372.11 152.488 1361.25 154.536L1324.32 161.507C1313.47 163.555 1296.88 160.804 1287.26 155.362L880.84 -74.749Z" fill="white"/>
<path d="M1081.41 -74.749L1157.65 -89.1374L1564.07 140.973C1573.69 146.416 1572.68 152.488 1561.83 154.536L1524.89 161.507C1514.04 163.555 1497.45 160.804 1487.84 155.362L1081.41 -74.749Z" fill="white"/>
<path d="M1280.16 -74.749L1356.4 -89.1374L1762.83 140.973C1772.44 146.416 1771.43 152.488 1760.58 154.536L1723.65 161.507C1712.79 163.555 1696.2 160.804 1686.59 155.362L1280.16 -74.749Z" fill="white"/>
<path d="M1478.92 -74.749L1555.16 -89.1374L1961.59 140.973C1971.2 146.416 1970.19 152.488 1959.34 154.536L1922.4 161.507C1911.55 163.555 1894.96 160.804 1885.35 155.362L1478.92 -74.749Z" fill="white"/>
<path d="M-22.1836 -74.749L54.0552 -89.1374L460.48 140.973C470.092 146.416 469.085 152.488 458.231 154.536L421.299 161.507C410.444 163.555 393.853 160.804 384.241 155.362L-22.1836 -74.749Z" fill="#0F242F"/>
<path d="M178.387 -74.749L254.626 -89.1374L661.051 140.973C670.663 146.416 669.656 152.488 658.802 154.536L621.869 161.507C611.015 163.555 594.424 160.804 584.812 155.362L178.387 -74.749Z" fill="#0F242F"/>
<path d="M-222.75 -74.749L-146.511 -89.1374L259.914 140.973C269.526 146.416 268.519 152.488 257.665 154.536L220.732 161.507C209.878 163.555 193.287 160.804 183.675 155.362L-222.75 -74.749Z" fill="#0F242F"/>
<path d="M378.957 -74.749L455.196 -89.1373L861.621 140.974C871.233 146.416 870.226 152.488 859.372 154.536L822.439 161.507C811.585 163.555 794.994 160.804 785.382 155.362L378.957 -74.749Z" fill="#0F242F"/>
<path d="M579.527 -74.749L655.766 -89.1373L1062.19 140.974C1071.8 146.416 1070.8 152.488 1059.94 154.536L1023.01 161.507C1012.16 163.555 995.564 160.804 985.952 155.362L579.527 -74.749Z" fill="#0F242F"/>
<path d="M780.098 -74.749L856.336 -89.1373L1262.76 140.974C1272.37 146.416 1271.37 152.488 1260.51 154.536L1223.58 161.507C1212.73 163.555 1196.13 160.804 1186.52 155.362L780.098 -74.749Z" fill="#0F242F"/>
<path d="M1179.42 -74.749L1255.66 -89.1373L1662.09 140.974C1671.7 146.416 1670.69 152.488 1659.84 154.536L1622.9 161.507C1612.05 163.555 1595.46 160.804 1585.85 155.362L1179.42 -74.749Z" fill="#0F242F"/>
<path d="M978.852 -74.749L1055.09 -89.1373L1461.52 140.974C1471.13 146.416 1470.12 152.488 1459.27 154.536L1422.33 161.507C1411.48 163.555 1394.89 160.804 1385.28 155.362L978.852 -74.749Z" fill="#0F242F"/>
<path d="M1378.18 -74.749L1454.41 -89.1374L1860.84 140.973C1870.45 146.416 1869.44 152.488 1858.59 154.536L1821.66 161.507C1810.8 163.555 1794.21 160.804 1784.6 155.362L1378.18 -74.749Z" fill="#0F242F"/>
<path d="M1576.93 -74.749L1653.17 -89.1374L2059.6 140.973C2069.21 146.416 2068.2 152.488 2057.35 154.536L2020.42 161.507C2009.56 163.555 1992.97 160.804 1983.36 155.362L1576.93 -74.749Z" fill="#0F242F"/>
<path d="M-397 -60.3606L-320.761 -74.749L85.6639 155.362C95.2759 160.804 94.2689 166.876 83.4149 168.925L46.4822 175.895C35.6281 177.943 19.037 175.192 9.42506 169.75L-397 -60.3606Z" fill="#0F242F"/>
</g>
</svg>
