<svg width="1920" height="33" viewBox="0 0 1920 33" fill="none" xmlns="http://www.w3.org/2000/svg">
<mask id="mask0_25_1165" style="mask-type:alpha" maskUnits="userSpaceOnUse" x="0" y="0" width="1920" height="33">
<rect width="1920" height="33" fill="#D9D9D9"/>
</mask>
<g mask="url(#mask0_25_1165)">
<rect width="92.8378" height="645.286" transform="matrix(0.964155 -0.26534 0.771141 0.636664 -461.657 -56.2022)" fill="white"/>
<rect width="92.8378" height="645.286" transform="matrix(0.964155 -0.26534 0.771141 0.636664 -226.178 -56.2022)" fill="white"/>
<rect width="92.8378" height="645.286" transform="matrix(0.964155 -0.26534 0.771141 0.636664 9.30664 -56.2022)" fill="white"/>
<rect width="92.8378" height="645.286" transform="matrix(0.964155 -0.26534 0.771141 0.636664 244.791 -56.2022)" fill="white"/>
<rect width="92.8378" height="645.286" transform="matrix(0.964155 -0.26534 0.771141 0.636664 480.275 -56.2022)" fill="white"/>
<rect width="92.8378" height="645.286" transform="matrix(0.964155 -0.26534 0.771141 0.636664 715.759 -56.2022)" fill="white"/>
<rect width="92.8378" height="645.286" transform="matrix(0.964155 -0.26534 0.771141 0.636664 949.112 -56.2022)" fill="white"/>
<rect width="92.8378" height="645.286" transform="matrix(0.964155 -0.26534 0.771141 0.636664 1184.6 -56.2022)" fill="white"/>
<rect width="92.8378" height="645.286" transform="matrix(0.964155 -0.26534 0.771141 0.636664 1417.95 -56.2022)" fill="white"/>
<rect width="92.8378" height="645.286" transform="matrix(0.964155 -0.26534 0.771141 0.636664 1651.3 -56.2022)" fill="white"/>
<rect width="92.8378" height="645.286" transform="matrix(0.964155 -0.26534 0.771141 0.636664 -111.104 -56.2022)" fill="#151515"/>
<rect width="92.8378" height="645.286" transform="matrix(0.964155 -0.26534 0.771141 0.636664 124.38 -56.2022)" fill="#151515"/>
<rect width="92.8378" height="645.286" transform="matrix(0.964155 -0.26534 0.771141 0.636664 -346.584 -56.2022)" fill="#151515"/>
<rect width="92.8378" height="645.286" transform="matrix(0.964155 -0.26534 0.771141 0.636664 359.864 -56.2022)" fill="#151515"/>
<rect width="92.8378" height="645.286" transform="matrix(0.964155 -0.26534 0.771141 0.636664 595.349 -56.2022)" fill="#151515"/>
<rect width="92.8378" height="645.286" transform="matrix(0.964155 -0.26534 0.771141 0.636664 830.832 -56.2022)" fill="#151515"/>
<rect width="92.8378" height="645.286" transform="matrix(0.964155 -0.26534 0.771141 0.636664 1299.67 -56.2022)" fill="#151515"/>
<rect width="92.8378" height="645.286" transform="matrix(0.964155 -0.26534 0.771141 0.636664 1064.19 -56.2022)" fill="#151515"/>
<rect width="92.8378" height="645.286" transform="matrix(0.964155 -0.26534 0.771141 0.636664 1533.02 -56.2022)" fill="#151515"/>
<rect width="92.8378" height="645.286" transform="matrix(0.964155 -0.26534 0.771141 0.636664 1766.38 -56.2022)" fill="#151515"/>
<rect width="92.8378" height="645.286" transform="matrix(0.964155 -0.26534 0.771141 0.636664 -551.167 -31.5687)" fill="#151515"/>
</g>
</svg>
