<svg width="375" height="15" viewBox="0 0 375 15" fill="none" xmlns="http://www.w3.org/2000/svg">
<mask id="mask0_1005_10219" style="mask-type:alpha" maskUnits="userSpaceOnUse" x="-7" y="0" width="390" height="15">
<path d="M-7 0H383V15H-7V0Z" fill="#D9D9D9"/>
</mask>
<g mask="url(#mask0_1005_10219)">
<path d="M-135.16 -29.6116L-104.958 -35.3116L49.5681 52.1785C56.9537 56.3601 56.18 61.0259 47.84 62.5999C39.5 64.1739 26.7518 62.06 19.3662 57.8784L-135.16 -29.6116Z" fill="white"/>
<path d="M-55.7046 -29.6116L-25.5027 -35.3116L129.023 52.1785C136.409 56.3601 135.635 61.0259 127.295 62.5999C118.955 64.1739 106.207 62.06 98.8216 57.8784L-55.7046 -29.6116Z" fill="white"/>
<path d="M23.751 -29.6116L53.9528 -35.3116L208.479 52.1785C215.865 56.3601 215.091 61.0259 206.751 62.5999C198.411 64.1739 185.663 62.06 178.277 57.8784L23.751 -29.6116Z" fill="white"/>
<path d="M103.207 -29.6116L133.408 -35.3116L287.935 52.1785C295.32 56.3601 294.546 61.0259 286.206 62.5999C277.866 64.1739 265.118 62.06 257.733 57.8784L103.207 -29.6116Z" fill="white"/>
<path d="M181.943 -29.6116L212.145 -35.3116L366.671 52.1785C374.057 56.3601 373.283 61.0259 364.943 62.5999C356.603 64.1739 343.855 62.06 336.47 57.8784L181.943 -29.6116Z" fill="white"/>
<path d="M261.398 -29.6116L291.6 -35.3116L446.126 52.1785C453.512 56.3601 452.738 61.0259 444.398 62.5999C436.058 64.1739 423.31 62.06 415.924 57.8784L261.398 -29.6116Z" fill="white"/>
<path d="M340.135 -29.6116L370.337 -35.3116L524.863 52.1785C532.249 56.3601 531.475 61.0259 523.135 62.5999C514.795 64.1739 502.047 62.06 494.661 57.8784L340.135 -29.6116Z" fill="white"/>
<path d="M-175.788 -29.6116L-145.586 -35.3116L8.94015 52.1785C16.3258 56.3601 15.5521 61.0259 7.21206 62.5999C-1.12794 64.1739 -13.8761 62.06 -21.2617 57.8784L-175.788 -29.6116Z" fill="#151515"/>
<path d="M-96.3323 -29.6116L-66.1304 -35.3116L88.3957 52.1785C95.7813 56.3601 95.0076 61.0259 86.6676 62.5999C78.3276 64.1739 65.5795 62.06 58.1939 57.8784L-96.3323 -29.6116Z" fill="#151515"/>
<path d="M-16.877 -29.6116L13.3249 -35.3116L167.851 52.1785C175.237 56.3601 174.463 61.0259 166.123 62.5999C157.783 64.1739 145.035 62.06 137.649 57.8784L-16.877 -29.6116Z" fill="#151515"/>
<path d="M62.5784 -29.6116L92.7802 -35.3116L247.306 52.1785C254.692 56.3601 253.918 61.0259 245.578 62.5999C237.238 64.1739 224.49 62.06 217.105 57.8784L62.5784 -29.6116Z" fill="#151515"/>
<path d="M142.034 -29.6116L172.236 -35.3116L326.762 52.1785C334.148 56.3601 333.374 61.0259 325.034 62.5999C316.694 64.1739 303.946 62.06 296.56 57.8784L142.034 -29.6116Z" fill="#151515"/>
<path d="M300.225 -29.6116L330.427 -35.3116L484.953 52.1785C492.339 56.3601 491.565 61.0259 483.225 62.5999C474.885 64.1739 462.137 62.06 454.751 57.8784L300.225 -29.6116Z" fill="#151515"/>
<path d="M220.77 -29.6116L250.972 -35.3116L405.498 52.1785C412.883 56.3601 412.11 61.0259 403.77 62.5999C395.43 64.1739 382.682 62.06 375.296 57.8784L220.77 -29.6116Z" fill="#151515"/>
</g>
</svg>
