<svg width="1920" height="31" viewBox="0 0 1920 31" fill="none" xmlns="http://www.w3.org/2000/svg">
<mask id="mask0_678_4108" style="mask-type:alpha" maskUnits="userSpaceOnUse" x="0" y="0" width="1920" height="31">
<rect width="1920" height="30.6987" fill="#D9D9D9"/>
</mask>
<g mask="url(#mask0_678_4108)">
<rect width="92.3968" height="627.435" transform="matrix(0.968756 -0.248014 0.793081 0.609116 -461.657 -52.2832)" fill="white"/>
<rect width="92.3968" height="627.435" transform="matrix(0.968756 -0.248014 0.793081 0.609116 -226.178 -52.2832)" fill="white"/>
<rect width="92.3968" height="627.435" transform="matrix(0.968756 -0.248014 0.793081 0.609116 9.30664 -52.2832)" fill="white"/>
<rect width="92.3968" height="627.435" transform="matrix(0.968756 -0.248014 0.793081 0.609116 244.791 -52.2827)" fill="white"/>
<rect width="92.3968" height="627.435" transform="matrix(0.968756 -0.248014 0.793081 0.609116 480.275 -52.2827)" fill="white"/>
<rect width="92.3968" height="627.435" transform="matrix(0.968756 -0.248014 0.793081 0.609116 715.759 -52.2832)" fill="white"/>
<rect width="92.3968" height="627.435" transform="matrix(0.968756 -0.248014 0.793081 0.609116 949.112 -52.2832)" fill="white"/>
<rect width="92.3968" height="627.435" transform="matrix(0.968756 -0.248014 0.793081 0.609116 1184.6 -52.2827)" fill="white"/>
<rect width="92.3968" height="627.435" transform="matrix(0.968756 -0.248014 0.793081 0.609116 1417.95 -52.2832)" fill="white"/>
<rect width="92.3968" height="627.435" transform="matrix(0.968756 -0.248014 0.793081 0.609116 1651.3 -52.2832)" fill="white"/>
<rect width="92.3968" height="627.435" transform="matrix(0.968756 -0.248014 0.793081 0.609116 -111.104 -52.2832)" fill="#151515"/>
<rect width="92.3968" height="627.435" transform="matrix(0.968756 -0.248014 0.793081 0.609116 124.38 -52.2832)" fill="#151515"/>
<rect width="92.3968" height="627.435" transform="matrix(0.968756 -0.248014 0.793081 0.609116 -346.583 -52.2832)" fill="#151515"/>
<rect width="92.3968" height="627.435" transform="matrix(0.968756 -0.248014 0.793081 0.609116 359.864 -52.2832)" fill="#151515"/>
<rect width="92.3968" height="627.435" transform="matrix(0.968756 -0.248014 0.793081 0.609116 595.349 -52.2832)" fill="#151515"/>
<rect width="92.3968" height="627.435" transform="matrix(0.968756 -0.248014 0.793081 0.609116 830.832 -52.2827)" fill="#151515"/>
<rect width="92.3968" height="627.435" transform="matrix(0.968756 -0.248014 0.793081 0.609116 1299.67 -52.2832)" fill="#151515"/>
<rect width="92.3968" height="627.435" transform="matrix(0.968756 -0.248014 0.793081 0.609116 1064.19 -52.2832)" fill="#151515"/>
<rect width="92.3968" height="627.435" transform="matrix(0.968756 -0.248014 0.793081 0.609116 1533.02 -52.2832)" fill="#151515"/>
<rect width="92.3968" height="627.435" transform="matrix(0.968756 -0.248014 0.793081 0.609116 1766.38 -52.2832)" fill="#151515"/>
<rect width="92.3968" height="627.435" transform="matrix(0.968756 -0.248014 0.793081 0.609116 -551.167 -29.3672)" fill="#151515"/>
</g>
</svg>
