<svg width="71" height="57" viewBox="0 0 71 57" fill="none" xmlns="http://www.w3.org/2000/svg">
<path d="M1 45.1316L16.0105 30.1796C16.6184 29.574 17.3401 29.0937 18.1344 28.766C18.9287 28.4383 19.78 28.2696 20.6397 28.2696C21.4994 28.2696 22.3507 28.4383 23.145 28.766C23.9392 29.0937 24.6609 29.574 25.2688 30.1796L40.2794 45.1316M35.915 40.7843L40.0146 36.7006C40.6225 36.0951 41.3442 35.6147 42.1384 35.287C42.9327 34.9593 43.784 34.7906 44.6437 34.7906C45.5034 34.7906 46.3547 34.9593 47.149 35.287C47.9433 35.6147 48.665 36.0951 49.2729 36.7006L57.7368 45.1316M5.36437 56.0001H53.3725C54.53 56.0001 55.6401 55.542 56.4585 54.7267C57.277 53.9114 57.7368 52.8057 57.7368 51.6527V16.8737C57.7368 15.7207 57.277 14.615 56.4585 13.7997C55.6401 12.9844 54.53 12.5264 53.3725 12.5264H5.36437C4.20687 12.5264 3.09677 12.9844 2.2783 13.7997C1.45982 14.615 1 15.7207 1 16.8737V51.6527C1 52.8057 1.45982 53.9114 2.2783 54.7267C3.09677 55.542 4.20687 56.0001 5.36437 56.0001ZM35.915 23.3948H35.9383V23.418H35.915V23.3948ZM37.0061 23.3948C37.0061 23.683 36.8911 23.9595 36.6865 24.1633C36.4819 24.3671 36.2044 24.4816 35.915 24.4816C35.6256 24.4816 35.3481 24.3671 35.1435 24.1633C34.9388 23.9595 34.8239 23.683 34.8239 23.3948C34.8239 23.1065 34.9388 22.8301 35.1435 22.6263C35.3481 22.4225 35.6256 22.3079 35.915 22.3079C36.2044 22.3079 36.4819 22.4225 36.6865 22.6263C36.8911 22.8301 37.0061 23.1065 37.0061 23.3948Z" stroke="#DE5A2B" stroke-width="2" stroke-linecap="round" stroke-linejoin="round"/>
<circle cx="58.8425" cy="12.1579" r="12.1579" fill="#DE5A2B"/>
<path d="M60.209 11.5227H65.8428V13.5227H60.209V19.1575H58.209V13.5227H52.5801V11.5227H58.209V5.89478H60.209V11.5227Z" fill="white"/>
</svg>
