<svg width="126" height="286" viewBox="0 0 126 286" fill="none" xmlns="http://www.w3.org/2000/svg">
<mask id="mask0_1673_1902" style="mask-type:alpha" maskUnits="userSpaceOnUse" x="0" y="0" width="126" height="286">
<rect width="126" height="285.021" rx="15" fill="#FAFAFA"/>
</mask>
<g mask="url(#mask0_1673_1902)">
<path fill-rule="evenodd" clip-rule="evenodd" d="M96.4669 27.8069H138.713V57.09C143.418 58.5081 147.928 60.3871 152.182 62.6771L172.897 41.9624L202.766 71.8368L182.056 92.5465C184.346 96.8006 186.225 101.31 187.643 106.021H216.927V148.267H187.643C186.225 152.977 184.346 157.481 182.056 161.741L202.766 182.45L172.897 212.325L152.182 191.61C147.928 193.9 143.418 195.779 138.713 197.197V226.48H96.4669V197.197C91.7568 195.779 87.247 193.9 82.9929 191.61L62.2782 212.325L32.4088 182.45L53.1185 161.741C50.8335 157.481 48.9545 152.977 47.5314 148.267H18.2483V106.021H47.5314C48.9545 101.31 50.8335 96.8006 53.1185 92.5465L32.4088 71.8368L62.2832 41.9624L82.9929 62.6771C87.247 60.3871 91.7568 58.5081 96.4669 57.09V27.8069ZM117.587 91.3789C137.34 91.3789 153.355 107.388 153.355 127.141C153.355 146.899 137.34 162.908 117.587 162.908C97.8348 162.908 81.8203 146.899 81.8203 127.141C81.8203 107.388 97.8348 91.3789 117.587 91.3789Z" fill="#DCE6EB"/>
</g>
</svg>
