<svg width="157" height="70" viewBox="0 0 157 70" fill="none" xmlns="http://www.w3.org/2000/svg">
<mask id="mask0_1538_12985" style="mask-type:alpha" maskUnits="userSpaceOnUse" x="0" y="0" width="157" height="70">
<rect y="69.2601" width="69.2601" height="156.395" rx="15" transform="rotate(-90 0 69.2601)" fill="#FAFAFA"/>
</mask>
<g mask="url(#mask0_1538_12985)">
<path fill-rule="evenodd" clip-rule="evenodd" d="M15.2578 16.2343L15.2578 -6.98759L31.3259 -6.98759C32.104 -9.57393 33.135 -12.0528 34.3916 -14.3913L23.0251 -25.7778L39.4176 -42.1965L50.7813 -30.8127C53.1156 -32.0715 55.5902 -33.1044 58.1747 -33.8838L58.1747 -49.9803L81.3557 -49.9803L81.3557 -33.8838C83.9402 -33.1044 86.412 -32.0715 88.749 -30.8127L100.113 -42.1965L116.505 -25.7778L105.139 -14.3913C106.395 -12.0528 107.426 -9.57393 108.204 -6.98759L124.272 -6.98759L124.272 16.2343L108.204 16.2343C107.426 18.8234 106.395 21.3024 105.139 23.6408L116.505 35.0273L100.113 51.446L88.749 40.0622C86.412 41.3182 83.9402 42.3511 81.3557 43.1334L81.3557 59.2298L58.1747 59.2298L58.1747 43.1334C55.5902 42.3511 53.1156 41.3182 50.7813 40.0622L39.4176 51.446L23.0251 35.0245L34.3916 23.6408C33.135 21.3024 32.104 18.8234 31.3259 16.2343L15.2578 16.2343ZM50.1406 4.62477C50.1406 -6.23289 58.9253 -15.0358 69.7638 -15.0358C80.605 -15.0358 89.3897 -6.23289 89.3897 4.62477C89.3897 15.4824 80.605 24.2853 69.7638 24.2853C58.9253 24.2853 50.1406 15.4824 50.1406 4.62477Z" fill="#DCE6EB"/>
</g>
</svg>
