<svg width="348" height="154" viewBox="0 0 348 154" fill="none" xmlns="http://www.w3.org/2000/svg">
<mask id="mask0_1538_12982" style="mask-type:alpha" maskUnits="userSpaceOnUse" x="0" y="0" width="348" height="154">
<rect x="347.744" y="1.52272e-05" width="154" height="347.744" rx="15" transform="rotate(90 347.744 1.52272e-05)" fill="#FAFAFA"/>
</mask>
<g mask="url(#mask0_1538_12982)">
<path fill-rule="evenodd" clip-rule="evenodd" d="M313.82 117.904L313.82 169.538L278.093 169.538C276.363 175.289 274.07 180.801 271.276 186L296.55 211.318L260.101 247.825L234.834 222.514C229.643 225.312 224.141 227.609 218.395 229.342L218.395 265.133L166.852 265.133L166.852 229.342C161.105 227.609 155.609 225.312 150.412 222.514L125.145 247.825L88.6965 211.318L113.97 186C111.176 180.801 108.883 175.289 107.153 169.538L71.4258 169.538L71.4258 117.904L107.153 117.904C108.883 112.147 111.176 106.635 113.97 101.436L88.6965 76.118L125.145 39.611L150.412 64.9228C155.609 62.1301 161.105 59.8335 166.852 58.0942L166.852 22.3037L218.395 22.3037L218.395 58.0942C224.141 59.8335 229.643 62.1301 234.834 64.9228L260.101 39.611L296.55 76.1242L271.276 101.436C274.07 106.635 276.363 112.147 278.093 117.904L313.82 117.904ZM236.258 143.718C236.258 167.86 216.726 187.434 192.626 187.434C168.521 187.434 148.988 167.86 148.988 143.718C148.988 119.576 168.521 100.003 192.626 100.003C216.726 100.003 236.258 119.576 236.258 143.718Z" fill="#DCE6EB"/>
</g>
</svg>
