<svg width="22" height="18" viewBox="0 0 22 18" fill="none" xmlns="http://www.w3.org/2000/svg">
<path d="M18 3.79367H20.875" stroke="#656565" stroke-width="2" stroke-miterlimit="10" stroke-linecap="round"/>
<path d="M1 3.79367H12.125" stroke="#656565" stroke-width="2" stroke-miterlimit="10" stroke-linecap="round"/>
<path d="M9.5 14.2063H21" stroke="#656565" stroke-width="2" stroke-miterlimit="10" stroke-linecap="round"/>
<path d="M1 14.2063H3.75" stroke="#656565" stroke-width="2" stroke-miterlimit="10" stroke-linecap="round"/>
<path d="M15 6.5873C16.5188 6.5873 17.75 5.33655 17.75 3.79366C17.75 2.25077 16.5188 1 15 1C13.4812 1 12.25 2.25077 12.25 3.79366C12.25 5.33655 13.4812 6.5873 15 6.5873Z" stroke="#656565" stroke-width="2" stroke-miterlimit="10" stroke-linecap="round"/>
<path d="M6.625 17C8.14378 17 9.37499 15.7493 9.37499 14.2064C9.37499 12.6635 8.14378 11.4127 6.625 11.4127C5.10621 11.4127 3.875 12.6635 3.875 14.2064C3.875 15.7493 5.10621 17 6.625 17Z" stroke="#656565" stroke-width="2" stroke-miterlimit="10" stroke-linecap="round"/>
</svg>
