<svg width="189" height="223" viewBox="0 0 189 223" fill="none" xmlns="http://www.w3.org/2000/svg">
<mask id="mask0_1673_1908" style="mask-type:alpha" maskUnits="userSpaceOnUse" x="0" y="0" width="189" height="223">
<rect width="189" height="222.993" rx="15" fill="#DE5A2B"/>
</mask>
<g mask="url(#mask0_1673_1908)">
<path fill-rule="evenodd" clip-rule="evenodd" d="M72.5074 95.0471L74.5803 92.9742C76.0004 91.7705 78.6242 88.701 79.6241 88.0323L117.516 126.128C117.411 126.284 117.306 126.427 117.201 126.564L109.985 133.779L111.326 135.12L112.666 136.46L120.308 144.103L130.026 153.821L133.096 156.89L182.065 205.86C185.533 209.327 188.192 212.406 191.605 215.399L207.657 231.451L222.514 216.594L222.727 216.387L222.826 216.282C222.954 216.161 223.075 216.039 223.192 215.915L237.792 201.316L222.727 186.251L222.406 185.93C219.55 182.672 216.146 179.632 213.226 176.712L208.004 171.528L162.566 126.09L160.06 123.584L149.514 113.038L142.98 106.504L141.063 104.587L140.12 103.644L137.834 105.931C137.13 106.577 134.245 109.494 133.545 110.22L132.354 111.411C132.074 111.672 131.832 111.882 131.631 112.012L93.4625 74.041L94.3477 73.1558C94.9846 72.5572 95.6692 71.879 96.2646 71.2389L100.828 66.676L96.6307 62.4793L94.854 60.7025L91.154 57.0025L94.8572 53.2993L98.5572 49.5993L102.257 53.2993L104.776 55.8179L106.085 57.1267L110.867 52.344C111.491 51.7454 112.119 51.1182 112.72 50.4909L112.768 50.4431L112.813 50.3985L112.861 50.3507L112.908 50.303L112.953 50.2584L113.001 50.2107L113.048 50.1629L113.093 50.1183L113.141 50.0705L113.185 50.0259L113.233 49.9782L113.278 49.9336L113.322 49.8891L113.37 49.8413L113.415 49.7967L113.459 49.7521L113.507 49.7043L113.551 49.6598L113.596 49.6152L113.641 49.5706L113.685 49.526L113.733 49.4783L113.778 49.4337L113.822 49.3891L113.867 49.3445L113.911 49.3L113.956 49.2554L114 49.2108L114.048 49.163L114.093 49.1185L114.137 49.0739L114.182 49.0293L114.227 48.9848L114.271 48.9402L114.316 48.8956L114.36 48.851L114.408 48.8032L114.453 48.7587L114.497 48.7141L114.542 48.6695L114.586 48.6249L114.631 48.5804L114.679 48.5326L114.723 48.488L114.768 48.4434L114.812 48.3988L114.86 48.3511L114.905 48.3065L114.949 48.2619L114.997 48.2142L115.042 48.1696L115.089 48.1218L115.134 48.0772L115.182 48.0295L115.226 47.9849L115.274 47.9371L115.319 47.8926L115.366 47.8448L115.414 47.797L115.462 47.7493L115.507 47.7047L115.554 47.6569L115.602 47.6092L115.65 47.5614L123.145 40.0659L115.653 32.5735L113.16 30.0802C110.546 27.3832 106.916 23.8042 104.502 21.4225L95.65 12.5705L88.1544 5.07489L80.6589 12.5704L80.6334 12.5959L80.6111 12.6182L80.5857 12.6437L80.5602 12.6692C80.073 13.1563 79.5699 13.634 79.0955 14.1339L71.0936 22.1357L73.1251 24.1672L77.0703 28.1124L80.7704 31.8124L77.0703 35.5125L73.3671 39.2157L69.6671 35.5156L66.0308 31.8793L63.6904 29.5389L35.3448 57.8845L19.9303 91.882L8.47994 117.133L13.2594 121.912L38.5131 110.465L72.5074 95.0471Z" fill="#DCE6EB"/>
</g>
</svg>
