<svg width="38" height="38" viewBox="0 0 38 38" fill="none" xmlns="http://www.w3.org/2000/svg">
<path fill-rule="evenodd" clip-rule="evenodd" d="M34.5805 9.58835C34.6495 9.16927 34.605 8.73934 34.4514 8.34334C34.2978 7.94735 34.0408 7.59979 33.7072 7.33687C33.3737 7.07396 32.9757 6.90531 32.5548 6.84849C32.1338 6.79168 31.7054 6.84878 31.3141 7.01385L4.23905 18.4139C2.35172 19.2087 2.25514 21.9384 4.23905 22.7617C6.20379 23.5803 8.19687 24.3292 10.2146 25.0069C12.0639 25.618 14.0811 26.1833 15.6976 26.3432C16.1394 26.872 16.6951 27.3819 17.262 27.8474C18.1281 28.5599 19.1699 29.2929 20.2466 29.9959C22.4031 31.4051 24.7955 32.7525 26.4073 33.6297C28.3342 34.6747 30.6411 33.4714 30.9863 31.3703L34.5805 9.58835ZM7.2743 20.5719L31.2206 10.4893L27.8671 30.8193C26.2854 29.9595 24.007 28.6723 21.9771 27.3454C21.0416 26.7447 20.1384 26.0952 19.2712 25.3995C19.0395 25.2102 18.8145 25.0126 18.5967 24.8074L24.8683 18.5374C25.1654 18.2405 25.3324 17.8377 25.3325 17.4177C25.3327 16.9977 25.166 16.5948 24.8691 16.2977C24.5722 16.0006 24.1695 15.8336 23.7494 15.8335C23.3294 15.8333 22.9266 16 22.6295 16.2969L15.7626 23.1639C14.6004 23.015 12.9822 22.5844 11.2057 21.9985C9.88318 21.5579 8.57276 21.0816 7.27589 20.5704L7.2743 20.5719Z" fill="#151515"/>
</svg>
