<svg width="70" height="70" viewBox="0 0 70 70" fill="none" xmlns="http://www.w3.org/2000/svg">
<rect x="1" y="1" width="68" height="68" rx="6" fill="#FFEEE5"/>
<rect x="1" y="1" width="68" height="68" rx="6" stroke="#DE5A2B" stroke-width="2"/>
<path d="M34.1093 19.7454C34.4804 19.0181 35.5196 19.0181 35.8907 19.7454L39.8649 27.5327C40.0102 27.8174 40.2828 28.0155 40.5985 28.0657L49.2328 29.4389C50.0391 29.5672 50.3602 30.5555 49.7833 31.1332L43.6051 37.3192C43.3793 37.5454 43.2751 37.8659 43.3249 38.1817L44.6871 46.8177C44.8143 47.6242 43.9736 48.235 43.2458 47.8648L35.4534 43.9007C35.1685 43.7557 34.8315 43.7557 34.5466 43.9007L26.7541 47.8648C26.0264 48.235 25.1857 47.6242 25.3129 46.8177L26.6751 38.1817C26.7249 37.8659 26.6207 37.5454 26.3949 37.3192L20.2167 31.1332C19.6398 30.5555 19.9609 29.5672 20.7672 29.4389L29.4015 28.0657C29.7172 28.0155 29.9898 27.8174 30.1351 27.5327L34.1093 19.7454Z" fill="#DE5A2B" stroke="#DE5A2B" stroke-width="2.5"/>
</svg>
