<svg width="124" height="229" viewBox="0 0 124 229" fill="none" xmlns="http://www.w3.org/2000/svg">
<path fill-rule="evenodd" clip-rule="evenodd" d="M90.0135 0H138.63V33.6989C144.045 35.3308 149.234 37.4932 154.13 40.1284L177.968 16.2901L212.342 50.6693L188.509 74.5019C191.145 79.3976 193.307 84.5873 194.939 90.0077H228.638V138.624H194.939C193.307 144.045 191.145 149.229 188.509 154.13L212.342 177.963L177.968 212.342L154.13 188.504C149.234 191.139 144.045 193.301 138.63 194.933V228.632H90.0135V194.933C84.5931 193.301 79.4033 191.139 74.5076 188.504L50.6693 212.342L16.2958 177.963L40.1284 154.13C37.4989 149.229 35.3365 144.045 33.6988 138.624H0V90.0077H33.6988C35.3365 84.5873 37.4989 79.3976 40.1284 74.5019L16.2958 50.6693L50.6751 16.2901L74.5076 40.1284C79.4033 37.4932 84.5931 35.3308 90.0135 33.6989V0ZM114.319 73.1583C137.05 73.1583 155.479 91.5819 155.479 114.313C155.479 137.05 137.05 155.474 114.319 155.474C91.5877 155.474 73.1583 137.05 73.1583 114.313C73.1583 91.5819 91.5877 73.1583 114.319 73.1583Z" fill="#DCE6EB"/>
</svg>
