<svg width="45" height="45" viewBox="0 0 45 45" fill="none" xmlns="http://www.w3.org/2000/svg">
<path fill-rule="evenodd" clip-rule="evenodd" d="M37.0815 8.30618C37.5448 8.11117 38.052 8.04391 38.5501 8.1114C39.0483 8.1789 39.5193 8.37869 39.914 8.68997C40.3088 9.00125 40.6129 9.41265 40.7947 9.88134C40.9765 10.35 41.0293 10.8589 40.9477 11.3549L36.6952 37.1493C36.2827 39.6374 33.5527 41.0643 31.2708 39.8249C29.3621 38.7881 26.5271 37.1906 23.9771 35.5237C22.7021 34.6893 18.7965 32.0174 19.2765 30.1162C19.689 28.4906 26.2515 22.3818 30.0015 18.7499C31.4733 17.3231 30.8021 16.4999 29.064 17.8124C24.7477 21.0712 17.8177 26.0268 15.5265 27.4218C13.5052 28.6518 12.4515 28.8618 11.1915 28.6518C8.89272 28.2693 6.76084 27.6768 5.02084 26.9549C2.66959 25.9799 2.78397 22.7474 5.01897 21.8062L37.0815 8.30618Z" fill="#151515"/>
</svg>
