<svg width="46" height="46" viewBox="0 0 46 46" fill="none" xmlns="http://www.w3.org/2000/svg">
<path d="M40.4667 34.5901H36.1724C34.5483 34.5901 34.059 33.2747 31.1478 30.3616C28.6036 27.9096 27.529 27.6047 26.8854 27.6047C25.9953 27.6047 25.7526 27.8493 25.7526 29.0744V32.936C25.7526 33.9804 25.4138 34.592 22.6852 34.592C20.0379 34.4142 17.4709 33.61 15.1953 32.2456C12.9198 30.8813 11.001 28.9959 9.59691 26.7447C6.26419 22.5945 3.94461 17.7247 2.82227 12.5217C2.82227 11.8781 3.06691 11.2947 4.29387 11.2947H8.58448C9.68724 11.2947 10.0843 11.7859 10.5171 12.9207C12.6003 19.0517 16.1551 24.3849 17.5985 24.3849C18.1518 24.3849 18.3927 24.1402 18.3927 22.7608V16.4454C18.2101 13.5642 16.6802 13.3215 16.6802 12.2789C16.6995 12.0039 16.8254 11.7472 17.0309 11.5635C17.2365 11.3797 17.5056 11.2833 17.7811 11.2947H24.5256C25.4477 11.2947 25.7526 11.7539 25.7526 12.8567V21.3814C25.7526 22.3017 26.1478 22.6065 26.4263 22.6065C26.9795 22.6065 27.4048 22.3017 28.4191 21.2892C30.5925 18.6371 32.3687 15.683 33.6921 12.5198C33.8269 12.1396 34.0827 11.8141 34.4202 11.5932C34.7577 11.3722 35.1584 11.2681 35.5607 11.2966H39.8532C41.1404 11.2966 41.4133 11.9402 41.1404 12.8586C39.5788 16.3556 37.647 19.6753 35.3782 22.7608C34.9153 23.4665 34.7309 23.8335 35.3782 24.6615C35.8035 25.3051 37.309 26.5622 38.3195 27.7571C39.7911 29.225 41.0125 30.9224 41.9364 32.7817C42.3053 33.9785 41.6918 34.5901 40.4667 34.5901Z" fill="#0F242F"/>
</svg>
