<svg width="20" height="18" viewBox="0 0 20 18" fill="none" xmlns="http://www.w3.org/2000/svg">
<path d="M10.0013 17C11.9982 16.9997 13.9384 16.4091 15.5162 15.3212C17.0941 14.2333 18.2201 12.7098 18.7169 10.9906C19.2138 9.27135 19.0533 7.45408 18.2608 5.82484C17.4682 4.1956 16.0886 2.84693 14.3391 1.99116C12.5896 1.13538 10.5695 0.821109 8.59704 1.09781C6.62454 1.37451 4.81158 2.22647 3.44359 3.51957C2.07559 4.81266 1.23026 6.47345 1.04067 8.24046C0.851074 10.0075 1.32799 11.7804 2.39634 13.28L1.00134 17L5.18634 15.76C6.62591 16.5721 8.2963 17.0023 10.0013 17Z" stroke="#151515" stroke-width="2" stroke-linecap="round" stroke-linejoin="round"/>
<path d="M5.95165 10.2853C6.59158 10.2853 7.11034 9.7665 7.11034 9.12658C7.11034 8.48666 6.59158 7.9679 5.95165 7.9679C5.31173 7.9679 4.79297 8.48666 4.79297 9.12658C4.79297 9.7665 5.31173 10.2853 5.95165 10.2853Z" fill="#151515"/>
<path d="M10.0063 10.2853C10.6463 10.2853 11.165 9.7665 11.165 9.12658C11.165 8.48666 10.6463 7.9679 10.0063 7.9679C9.36642 7.9679 8.84766 8.48666 8.84766 9.12658C8.84766 9.7665 9.36642 10.2853 10.0063 10.2853Z" fill="#151515"/>
<path d="M14.0649 10.2853C14.7049 10.2853 15.2236 9.7665 15.2236 9.12658C15.2236 8.48666 14.7049 7.9679 14.0649 7.9679C13.425 7.9679 12.9062 8.48666 12.9062 9.12658C12.9062 9.7665 13.425 10.2853 14.0649 10.2853Z" fill="#151515"/>
</svg>
