<svg width="25" height="23" viewBox="0 0 25 23" fill="none" xmlns="http://www.w3.org/2000/svg">
<path d="M20.7844 6.51634C22.0083 6.51634 23.0005 5.50531 23.0005 4.25814C23.0005 3.01097 22.0083 1.99994 20.7844 1.99994C19.5605 1.99994 18.5684 3.01097 18.5684 4.25814C18.5684 5.50531 19.5605 6.51634 20.7844 6.51634Z" stroke="#151515" stroke-width="2" stroke-miterlimit="10" stroke-linecap="round"/>
<path d="M6.26562 9.7753C6.39463 9.77532 6.53125 9.88754 6.53125 10.0653C6.53105 10.2429 6.39454 10.3544 6.26562 10.3544C6.1367 10.3544 6.0002 10.2429 6 10.0653C6 9.88753 6.13661 9.7753 6.26562 9.7753Z" fill="black" stroke="#151515" stroke-width="2"/>
<path d="M12.1172 11.3547C12.8161 11.3547 13.3828 10.7773 13.3828 10.065C13.3828 9.35276 12.8161 8.77536 12.1172 8.77536C11.4182 8.77536 10.8516 9.35276 10.8516 10.065C10.8516 10.7773 11.4182 11.3547 12.1172 11.3547Z" fill="black"/>
<path d="M17.7343 11.3547C18.4333 11.3547 18.9999 10.7773 18.9999 10.065C18.9999 9.35276 18.4333 8.77536 17.7343 8.77536C17.0354 8.77536 16.4688 9.35276 16.4688 10.065C16.4688 10.7773 17.0354 11.3547 17.7343 11.3547Z" fill="black"/>
<path d="M15.402 3.07544H4.74372C3.26634 3.07544 2 4.47337 2 6.1939V14.2589C2 15.6568 2.84422 16.8397 4.00502 17.2698C4.32161 17.3774 4.21608 17.7 4.21608 18.0226C4.21608 18.8828 4.21608 19.7431 4.21608 20.4958C4.21608 21.7862 6.32663 20.4958 6.85427 17.8075C6.9598 17.4849 7.27638 17.3774 7.48743 17.3774H19.5176C20.9949 17.3774 22.2613 15.9794 22.2613 14.2589V9.52744" stroke="black" stroke-width="2" stroke-miterlimit="10" stroke-linecap="round"/>
</svg>
