<svg width="278" height="328" viewBox="0 0 278 328" fill="none" xmlns="http://www.w3.org/2000/svg">
<mask id="mask0_1423_12913" style="mask-type:alpha" maskUnits="userSpaceOnUse" x="0" y="0" width="278" height="328">
<rect width="278" height="328" rx="15" fill="#DE5A2B"/>
</mask>
<g mask="url(#mask0_1423_12913)">
<path fill-rule="evenodd" clip-rule="evenodd" d="M106.651 139.805L109.7 136.756C111.789 134.985 115.648 130.47 117.119 129.487L172.854 185.521C172.699 185.751 172.545 185.962 172.39 186.163L161.777 196.776L163.749 198.748L165.721 200.72L176.961 211.96L191.256 226.255L195.771 230.77L267.8 302.799C272.9 307.899 276.811 312.429 281.832 316.831L305.442 340.441L327.296 318.587L327.609 318.283L327.755 318.128C327.942 317.951 328.12 317.773 328.293 317.59L349.768 296.116L327.609 273.957L327.136 273.484C322.935 268.693 317.928 264.22 313.634 259.925L305.952 252.3L239.117 185.465L235.431 181.779L219.919 166.267L210.309 156.656L207.489 153.837L206.103 152.451L202.74 155.813C201.705 156.764 197.461 161.054 196.431 162.122L194.679 163.874C194.267 164.258 193.911 164.567 193.616 164.759L137.474 108.907L138.776 107.605C139.713 106.724 140.72 105.727 141.595 104.785L148.307 98.0739L142.134 91.9009L139.52 89.2874L134.078 83.8451L139.525 78.398L144.968 72.9557L150.41 78.398L154.115 82.1027L156.04 84.0277L163.074 76.993C163.992 76.1124 164.915 75.1898 165.8 74.2671L165.87 74.1969L165.936 74.1313L166.006 74.061L166.077 73.9907L166.142 73.9252L166.212 73.855L166.283 73.7847L166.348 73.7191L166.418 73.6489L166.484 73.5833L166.554 73.5131L166.62 73.4475L166.685 73.3819L166.756 73.3116L166.821 73.2461L166.887 73.1805L166.957 73.1102L167.023 73.0447L167.088 72.9791L167.154 72.9136L167.219 72.848L167.29 72.7777L167.355 72.7121L167.421 72.6466L167.486 72.581L167.552 72.5154L167.617 72.4499L167.683 72.3843L167.753 72.314L167.819 72.2484L167.884 72.1829L167.95 72.1173L168.016 72.0518L168.081 71.9862L168.147 71.9206L168.212 71.855L168.283 71.7848L168.348 71.7192L168.414 71.6536L168.479 71.588L168.545 71.5225L168.61 71.457L168.681 71.3867L168.746 71.3211L168.812 71.2555L168.877 71.1899L168.948 71.1197L169.013 71.0542L169.079 70.9886L169.149 70.9183L169.215 70.8527L169.285 70.7825L169.35 70.7169L169.421 70.6467L169.486 70.5811L169.556 70.5108L169.622 70.4453L169.692 70.375L169.763 70.3047L169.833 70.2345L169.898 70.169L169.969 70.0987L170.039 70.0284L170.109 69.9582L181.134 58.933L170.114 47.9124L166.446 44.2451C162.601 40.2781 157.262 35.0138 153.712 31.5104L140.691 18.49L129.666 7.46478L118.641 18.49L118.603 18.5275L118.571 18.5602L118.533 18.5977L118.496 18.6352C117.779 19.3518 117.039 20.0543 116.341 20.7896L104.571 32.5595L107.56 35.5477L113.363 41.3507L118.805 46.793L113.363 52.2354L107.915 57.6824L102.473 52.2401L97.1245 46.8914L93.682 43.4489L51.9885 85.1424L29.3152 135.149L12.4729 172.29L19.503 179.32L56.6487 162.483L106.651 139.805Z" fill="#DCE6EB"/>
</g>
</svg>
