<svg width="42" height="42" viewBox="0 0 42 42" fill="none" xmlns="http://www.w3.org/2000/svg">
<path d="M33.3379 8.59259C31.7333 6.97228 29.8222 5.68754 27.716 4.81323C25.6099 3.93892 23.3508 3.49254 21.0704 3.50009C11.5154 3.50009 3.72789 11.2876 3.72789 20.8426C3.72789 23.9051 4.53289 26.8801 6.03789 29.5051L3.58789 38.5001L12.7754 36.0851C15.3129 37.4676 18.1654 38.2026 21.0704 38.2026C30.6254 38.2026 38.4129 30.4151 38.4129 20.8601C38.4129 16.2226 36.6104 11.8651 33.3379 8.59259ZM21.0704 35.2626C18.4804 35.2626 15.9429 34.5626 13.7204 33.2501L13.1954 32.9351L7.73539 34.3701L9.18789 29.0501L8.83789 28.5076C7.3986 26.2099 6.63451 23.5538 6.63289 20.8426C6.63289 12.8976 13.1079 6.42259 21.0529 6.42259C24.9029 6.42259 28.5254 7.92759 31.2379 10.6576C32.5812 11.9944 33.6458 13.5845 34.3697 15.3359C35.0937 17.0873 35.4627 18.965 35.4554 20.8601C35.4904 28.8051 29.0154 35.2626 21.0704 35.2626ZM28.9804 24.4826C28.5429 24.2726 26.4079 23.2226 26.0229 23.0651C25.6204 22.9251 25.3404 22.8551 25.0429 23.2751C24.7454 23.7126 23.9229 24.6926 23.6779 24.9726C23.4329 25.2701 23.1704 25.3051 22.7329 25.0776C22.2954 24.8676 20.8954 24.3951 19.2504 22.9251C17.9554 21.7701 17.0979 20.3526 16.8354 19.9151C16.5904 19.4776 16.8004 19.2501 17.0279 19.0226C17.2204 18.8301 17.4654 18.5151 17.6754 18.2701C17.8854 18.0251 17.9729 17.8326 18.1129 17.5526C18.2529 17.2551 18.1829 17.0101 18.0779 16.8001C17.9729 16.5901 17.0979 14.4551 16.7479 13.5801C16.3979 12.7401 16.0304 12.8451 15.7679 12.8276H14.9279C14.6304 12.8276 14.1754 12.9326 13.7729 13.3701C13.3879 13.8076 12.2679 14.8576 12.2679 16.9926C12.2679 19.1276 13.8254 21.1926 14.0354 21.4726C14.2454 21.7701 17.0979 26.1451 21.4379 28.0176C22.4704 28.4726 23.2754 28.7351 23.9054 28.9276C24.9379 29.2601 25.8829 29.2076 26.6354 29.1026C27.4754 28.9801 29.2079 28.0526 29.5579 27.0376C29.9254 26.0226 29.9254 25.1651 29.8029 24.9726C29.6804 24.7801 29.4179 24.6926 28.9804 24.4826Z" fill="#151515"/>
</svg>
