<svg width="49" height="49" viewBox="0 0 49 49" fill="none" xmlns="http://www.w3.org/2000/svg">
<path d="M15.9247 4.0835H33.0747C39.608 4.0835 44.9163 9.39183 44.9163 15.9252V33.0752C44.9163 36.2158 43.6687 39.2277 41.448 41.4485C39.2273 43.6692 36.2153 44.9168 33.0747 44.9168H15.9247C9.39134 44.9168 4.08301 39.6085 4.08301 33.0752V15.9252C4.08301 12.7846 5.33061 9.77258 7.55135 7.55184C9.7721 5.3311 12.7841 4.0835 15.9247 4.0835ZM15.5163 8.16683C13.567 8.16683 11.6975 8.9412 10.3191 10.3196C8.94071 11.698 8.16634 13.5675 8.16634 15.5168V33.4835C8.16634 37.5464 11.4534 40.8335 15.5163 40.8335H33.483C35.4324 40.8335 37.3019 40.0591 38.6802 38.6807C40.0586 37.3023 40.833 35.4328 40.833 33.4835V15.5168C40.833 11.4539 37.5459 8.16683 33.483 8.16683H15.5163ZM35.2184 11.2293C35.8953 11.2293 36.5444 11.4982 37.023 11.9768C37.5016 12.4554 37.7705 13.1046 37.7705 13.7814C37.7705 14.4583 37.5016 15.1074 37.023 15.586C36.5444 16.0646 35.8953 16.3335 35.2184 16.3335C34.5416 16.3335 33.8924 16.0646 33.4138 15.586C32.9352 15.1074 32.6663 14.4583 32.6663 13.7814C32.6663 13.1046 32.9352 12.4554 33.4138 11.9768C33.8924 11.4982 34.5416 11.2293 35.2184 11.2293ZM24.4997 14.2918C27.2071 14.2918 29.8036 15.3673 31.7181 17.2818C33.6325 19.1962 34.708 21.7927 34.708 24.5002C34.708 27.2076 33.6325 29.8041 31.7181 31.7185C29.8036 33.633 27.2071 34.7085 24.4997 34.7085C21.7923 34.7085 19.1957 33.633 17.2813 31.7185C15.3669 29.8041 14.2913 27.2076 14.2913 24.5002C14.2913 21.7927 15.3669 19.1962 17.2813 17.2818C19.1957 15.3673 21.7923 14.2918 24.4997 14.2918ZM24.4997 18.3752C22.8752 18.3752 21.3173 19.0205 20.1686 20.1691C19.02 21.3178 18.3747 22.8757 18.3747 24.5002C18.3747 26.1246 19.02 27.6825 20.1686 28.8312C21.3173 29.9799 22.8752 30.6252 24.4997 30.6252C26.1241 30.6252 27.682 29.9799 28.8307 28.8312C29.9794 27.6825 30.6247 26.1246 30.6247 24.5002C30.6247 22.8757 29.9794 21.3178 28.8307 20.1691C27.682 19.0205 26.1241 18.3752 24.4997 18.3752Z" fill="#151515"/>
</svg>
