<svg width="18" height="18" viewBox="0 0 18 18" fill="none" xmlns="http://www.w3.org/2000/svg">
<path d="M15.2656 0.366211C15.7538 -0.121944 16.545 -0.121944 17.0332 0.366211C17.5211 0.854385 17.5213 1.64571 17.0332 2.13379L10.4668 8.69922L17.0332 15.2656C17.521 15.7538 17.5212 16.5452 17.0332 17.0332C16.5451 17.521 15.7537 17.5209 15.2656 17.0332L8.69922 10.4668L2.13379 17.0332C1.64568 17.5209 0.854254 17.521 0.366211 17.0332C-0.121814 16.5452 -0.121554 15.7538 0.366211 15.2656L6.93164 8.69922L0.366211 2.13379C-0.12186 1.64572 -0.121692 0.854387 0.366211 0.366211C0.854366 -0.121944 1.64563 -0.121944 2.13379 0.366211L8.69922 6.93164L15.2656 0.366211Z" fill="#D03636"/>
</svg>
