<svg width="70" height="70" viewBox="0 0 70 70" fill="none" xmlns="http://www.w3.org/2000/svg">
<path d="M35 4.375C28.943 4.375 23.0219 6.17113 17.9857 9.53624C12.9494 12.9014 9.02414 17.6843 6.7062 23.2803C4.38827 28.8763 3.78179 35.034 4.96346 40.9746C6.14514 46.9153 9.06188 52.3722 13.3449 56.6551C17.6278 60.9381 23.0847 63.8549 29.0254 65.0365C34.966 66.2182 41.1237 65.6117 46.7197 63.2938C52.3157 60.9759 57.0986 57.0506 60.4638 52.0143C63.8289 46.9781 65.625 41.057 65.625 35C65.625 26.8777 62.3985 19.0882 56.6552 13.3449C50.9118 7.60155 43.1223 4.375 35 4.375ZM30.625 47.2281L19.6875 36.2906L23.1656 32.8125L30.625 40.2719L46.8344 24.0625L50.3256 27.5319L30.625 47.2281Z" fill="white"/>
</svg>
