<svg width="73" height="65" viewBox="0 0 73 65" fill="none" xmlns="http://www.w3.org/2000/svg">
<path d="M4.05825 60.831L0.286736 59.3305C0.0172513 60.0085 -0.0643071 60.7467 0.0506571 61.4672C0.165621 62.1878 0.47285 62.8639 0.939956 63.4245C1.40706 63.985 2.01674 64.4091 2.70473 64.6521C3.39272 64.8951 4.13352 64.948 4.84906 64.8052L4.05825 60.831ZM23.143 57.0351L25.0652 53.4623L23.7796 52.7729L22.3521 53.0568L23.143 57.0351ZM10.6442 44.2728L14.4157 45.7733L15.0768 44.0943L14.2819 42.4762L10.6442 44.2728ZM64.8892 32.4432C64.8892 45.607 53.3192 56.7756 38.4075 56.7756V64.8864C57.2286 64.8864 73 50.6357 73 32.4432H64.8892ZM11.9298 32.4432C11.9298 19.2794 23.5039 8.11079 38.4115 8.11079V0C19.5904 0 3.81493 14.2507 3.81493 32.4432H11.9298ZM38.4115 8.11079C53.3192 8.11079 64.8892 19.2794 64.8892 32.4432H73C73 14.2507 57.2326 0 38.4115 0V8.11079ZM38.4075 56.7756C33.5207 56.7756 28.9706 55.5589 25.0652 53.4623L21.2207 60.6039C26.5062 63.4374 32.4104 64.9092 38.4075 64.8864V56.7756ZM4.84906 64.8052L23.9338 61.0094L22.3521 53.0568L3.26745 56.8526L4.84906 64.8093V64.8052ZM14.2819 42.4762C12.738 39.3566 11.9359 35.9239 11.9298 32.4432H3.81493C3.81493 37.3097 4.95855 41.9247 7.00247 46.0693L14.2819 42.4762ZM6.87676 42.7723L0.286736 59.3345L7.82166 62.3274L14.4076 45.7692L6.8727 42.7723H6.87676Z" fill="#F1EEEE"/>
<path d="M24.3356 36.4985C26.5753 36.4985 28.391 34.6828 28.391 32.4431C28.391 30.2034 26.5753 28.3877 24.3356 28.3877C22.0958 28.3877 20.2802 30.2034 20.2802 32.4431C20.2802 34.6828 22.0958 36.4985 24.3356 36.4985Z" fill="#F1EEEE"/>
<path d="M38.5284 36.4985C40.7681 36.4985 42.5838 34.6828 42.5838 32.4431C42.5838 30.2034 40.7681 28.3877 38.5284 28.3877C36.2886 28.3877 34.473 30.2034 34.473 32.4431C34.473 34.6828 36.2886 36.4985 38.5284 36.4985Z" fill="#F1EEEE"/>
<path d="M52.7238 36.4985C54.9635 36.4985 56.7792 34.6828 56.7792 32.4431C56.7792 30.2034 54.9635 28.3877 52.7238 28.3877C50.4841 28.3877 48.6684 30.2034 48.6684 32.4431C48.6684 34.6828 50.4841 36.4985 52.7238 36.4985Z" fill="#F1EEEE"/>
</svg>
