<svg width="42" height="42" viewBox="0 0 42 42" fill="none" xmlns="http://www.w3.org/2000/svg">
<path d="M18.6566 26L15.9998 26L15.9998 23M15.1024 23.8974L26.4107 12.589C27.1918 11.808 28.4581 11.808 29.2392 12.589C30.0202 13.3701 30.0202 14.6364 29.2392 15.4174L17.764 26.8926C17.2279 27.4287 16.9599 27.6967 16.6632 27.9271C16.3996 28.1318 16.1195 28.3142 15.8256 28.4723C15.4948 28.6503 15.1411 28.7868 14.4339 29.0599L12 29.9998L12.7831 27.6501C13.0504 26.8483 13.184 26.4473 13.3699 26.0729C13.535 25.7404 13.7305 25.424 13.9541 25.1276C14.2058 24.7939 14.5047 24.4951 15.1024 23.8974Z" stroke="black" stroke-width="2" stroke-linecap="round" stroke-linejoin="round"/>
</svg>
