<svg width="35" height="35" viewBox="0 0 35 35" fill="none" xmlns="http://www.w3.org/2000/svg">
<path d="M10.8672 14.1649C10.8672 15.9236 11.5659 17.6104 12.8095 18.854C14.0531 20.0976 15.7399 20.7963 17.4986 20.7963C19.2574 20.7963 20.9442 20.0976 22.1878 18.854C23.4314 17.6104 24.1301 15.9236 24.1301 14.1649C24.1301 12.4061 23.4314 10.7193 22.1878 9.47571C20.9442 8.23207 19.2574 7.5334 17.4986 7.5334C15.7399 7.5334 14.0531 8.23207 12.8095 9.47571C11.5659 10.7193 10.8672 12.4061 10.8672 14.1649Z" stroke="#151515" stroke-width="2" stroke-linecap="round" stroke-linejoin="round"/>
<path d="M17.499 20.7963L21.2568 27.3062L23.023 23.7329L26.9996 23.9893L23.2418 17.4806M11.7539 17.4806L7.99609 23.9905L11.9728 23.7329L13.7389 27.3051L17.4968 20.7963" stroke="#151515" stroke-width="2" stroke-linecap="round" stroke-linejoin="round"/>
</svg>
