<svg width="24" height="21" viewBox="0 0 24 21" fill="none" xmlns="http://www.w3.org/2000/svg">
<path d="M8.00061 13.36C8.88744 13.3598 9.74918 13.6409 10.4503 14.1592C11.1515 14.6774 11.6523 15.4034 11.874 16.2229H22.9983C23.2482 16.2225 23.4891 16.3113 23.6738 16.472C23.8584 16.6326 23.9733 16.8535 23.9959 17.091C24.0185 17.3284 23.9471 17.5654 23.7957 17.7552C23.6444 17.9449 23.4241 18.0737 23.1783 18.1162L22.9983 18.1315L11.874 18.1334C11.6531 18.9536 11.1526 19.6804 10.4513 20.1994C9.75011 20.7183 8.88796 21 8.00061 21C7.11327 21 6.25112 20.7183 5.54989 20.1994C4.84866 19.6804 4.34817 18.9536 4.12721 18.1334L1.00169 18.1315C0.751836 18.1319 0.510864 18.043 0.326227 17.8824C0.141589 17.7217 0.0266673 17.5009 0.00409183 17.2634C-0.0184836 17.0259 0.0529234 16.789 0.204251 16.5992C0.355579 16.4094 0.575861 16.2806 0.821717 16.2382L1.00169 16.2229H4.12721C4.34892 15.4034 4.84972 14.6774 5.55089 14.1592C6.25205 13.6409 7.11379 13.3598 8.00061 13.36ZM8.00061 15.2686C7.47026 15.2686 6.96163 15.4697 6.58662 15.8276C6.2116 16.1855 6.00092 16.671 6.00092 17.1772C6.00092 17.6834 6.2116 18.1688 6.58662 18.5267C6.96163 18.8847 7.47026 19.0858 8.00061 19.0858C8.53097 19.0858 9.0396 18.8847 9.41461 18.5267C9.78963 18.1688 10.0003 17.6834 10.0003 17.1772C10.0003 16.671 9.78963 16.1855 9.41461 15.8276C9.0396 15.4697 8.53097 15.2686 8.00061 15.2686ZM15.9994 1.23373e-07C16.8862 -0.000214997 17.7479 0.280896 18.4491 0.799131C19.1503 1.31737 19.6511 2.04333 19.8728 2.86286H22.9983C23.2482 2.86242 23.4891 2.95129 23.6738 3.11195C23.8584 3.27261 23.9733 3.49343 23.9959 3.73092C24.0185 3.96842 23.9471 4.20537 23.7957 4.39513C23.6444 4.58488 23.4241 4.71368 23.1783 4.75617L22.9983 4.77144L19.8728 4.77335C19.6518 5.59358 19.1513 6.32039 18.4501 6.83936C17.7489 7.35832 16.8867 7.63998 15.9994 7.63998C15.112 7.63998 14.2499 7.35832 13.5487 6.83936C12.8474 6.32039 12.3469 5.59358 12.126 4.77335L1.00169 4.77144C0.751836 4.77188 0.510864 4.68302 0.326227 4.52235C0.141589 4.36169 0.0266673 4.14087 0.00409183 3.90338C-0.0184836 3.66588 0.0529234 3.42893 0.204251 3.23917C0.355579 3.04942 0.575861 2.92062 0.821717 2.87813L1.00169 2.86286H12.126C12.3477 2.04333 12.8485 1.31737 13.5497 0.799131C14.2508 0.280896 15.1126 -0.000214997 15.9994 1.23373e-07ZM15.9994 1.90858C15.469 1.90858 14.9604 2.10966 14.5854 2.46758C14.2104 2.82551 13.9997 3.31096 13.9997 3.81715C13.9997 4.32334 14.2104 4.80879 14.5854 5.16672C14.9604 5.52464 15.469 5.72573 15.9994 5.72573C16.5297 5.72573 17.0384 5.52464 17.4134 5.16672C17.7884 4.80879 17.9991 4.32334 17.9991 3.81715C17.9991 3.31096 17.7884 2.82551 17.4134 2.46758C17.0384 2.10966 16.5297 1.90858 15.9994 1.90858Z" fill="#656565"/>
</svg>
