<svg width="66" height="47" viewBox="0 0 66 47" fill="none" xmlns="http://www.w3.org/2000/svg">
<path d="M63.0642 3.66504L30.4928 22.4702M1.99966 22.68L9.60385 18.2897M12.0738 33.1044L16.6363 30.4702M20.627 44.4069L23.6687 42.6508M31.0676 24.1263L33.5581 34.7022C34.5009 38.706 34.9723 40.7079 35.997 41.4743C36.8867 42.1396 38.0379 42.3454 39.1019 42.0292C40.3273 41.665 41.4588 39.9496 43.7218 36.5187L60.6341 10.8785C62.6264 7.85809 63.6225 6.3479 63.5242 5.13933C63.4386 4.08759 62.8854 3.12947 62.0174 2.5295C61.0199 1.84006 59.214 1.94763 55.6021 2.16278L24.8988 3.99173C20.8075 4.23543 18.7619 4.35729 17.8342 5.23484C17.0287 5.99679 16.6305 7.0949 16.7599 8.1971C16.9089 9.46652 18.3994 10.8753 21.3804 13.6929L29.4543 21.3243C29.9102 21.7552 30.1382 21.9707 30.322 22.2181C30.4852 22.4378 30.6221 22.6757 30.7302 22.9271C30.8519 23.2102 30.9238 23.5156 31.0676 24.1263Z" stroke="black" stroke-width="4" stroke-linecap="round" stroke-linejoin="round"/>
</svg>
