<svg width="43" height="43" viewBox="0 0 43 43" fill="none" xmlns="http://www.w3.org/2000/svg">
<path d="M13.8319 3.54688H28.7274C34.4019 3.54688 39.0124 8.1574 39.0124 13.8319V28.7274C39.0124 31.4552 37.9289 34.0712 36 36C34.0712 37.9288 31.4552 39.0124 28.7274 39.0124H13.8319C8.1574 39.0124 3.54688 34.4019 3.54688 28.7274V13.8319C3.54688 11.1041 4.63047 8.4881 6.55929 6.55929C8.4881 4.63047 11.1041 3.54688 13.8319 3.54688ZM13.4772 7.09343C11.7841 7.09343 10.1604 7.76601 8.9632 8.9632C7.76601 10.1604 7.09343 11.7841 7.09343 13.4772V29.0821C7.09343 32.6109 9.94841 35.4659 13.4772 35.4659H29.0821C30.7752 35.4659 32.3989 34.7933 33.5961 33.5961C34.7933 32.3989 35.4659 30.7752 35.4659 29.0821V13.4772C35.4659 9.94841 32.6109 7.09343 29.0821 7.09343H13.4772ZM30.5894 9.75335C31.1773 9.75335 31.7411 9.98688 32.1567 10.4026C32.5724 10.8183 32.806 11.3821 32.806 11.9699C32.806 12.5578 32.5724 13.1216 32.1567 13.5373C31.7411 13.953 31.1773 14.1865 30.5894 14.1865C30.0015 14.1865 29.4377 13.953 29.022 13.5373C28.6063 13.1216 28.3728 12.5578 28.3728 11.9699C28.3728 11.3821 28.6063 10.8183 29.022 10.4026C29.4377 9.98688 30.0015 9.75335 30.5894 9.75335ZM21.2797 12.4133C23.6312 12.4133 25.8864 13.3474 27.5491 15.0102C29.2119 16.6729 30.1461 18.9281 30.1461 21.2797C30.1461 23.6312 29.2119 25.8864 27.5491 27.5491C25.8864 29.2119 23.6312 30.1461 21.2797 30.1461C18.9281 30.1461 16.6729 29.2119 15.0102 27.5491C13.3474 25.8864 12.4133 23.6312 12.4133 21.2797C12.4133 18.9281 13.3474 16.6729 15.0102 15.0102C16.6729 13.3474 18.9281 12.4133 21.2797 12.4133ZM21.2797 15.9598C19.8688 15.9598 18.5156 16.5203 17.518 17.518C16.5203 18.5156 15.9598 19.8688 15.9598 21.2797C15.9598 22.6906 16.5203 24.0437 17.518 25.0414C18.5156 26.039 19.8688 26.5995 21.2797 26.5995C22.6906 26.5995 24.0437 26.039 25.0414 25.0414C26.039 24.0437 26.5995 22.6906 26.5995 21.2797C26.5995 19.8688 26.039 18.5156 25.0414 17.518C24.0437 16.5203 22.6906 15.9598 21.2797 15.9598Z" fill="#0F242F"/>
</svg>
