<svg width="44" height="44" viewBox="0 0 44 44" fill="none" xmlns="http://www.w3.org/2000/svg">
<circle cx="22" cy="22" r="22" fill="#F4F5F5"/>
<path d="M10.7754 30.4189C10.7754 28.9304 11.3667 27.5029 12.4192 26.4504C13.4717 25.3979 14.8992 24.8066 16.3876 24.8066H27.6121C29.1006 24.8066 30.5281 25.3979 31.5806 26.4504C32.6331 27.5029 33.2244 28.9304 33.2244 30.4189C33.2244 31.1631 32.9287 31.8769 32.4025 32.4031C31.8762 32.9294 31.1625 33.225 30.4182 33.225H13.5815C12.8373 33.225 12.1235 32.9294 11.5973 32.4031C11.071 31.8769 10.7754 31.1631 10.7754 30.4189Z" stroke="black" stroke-opacity="0.5" stroke-width="2" stroke-linejoin="round"/>
<path d="M22.0002 19.1942C24.3249 19.1942 26.2094 17.3097 26.2094 14.9851C26.2094 12.6604 24.3249 10.7759 22.0002 10.7759C19.6755 10.7759 17.791 12.6604 17.791 14.9851C17.791 17.3097 19.6755 19.1942 22.0002 19.1942Z" stroke="black" stroke-opacity="0.5" stroke-width="2"/>
</svg>
