<svg width="17" height="17" viewBox="0 0 17 17" fill="none" xmlns="http://www.w3.org/2000/svg">
<path d="M14.3594 0.336914C14.8084 -0.111983 15.5372 -0.111851 15.9863 0.336914C16.4354 0.785982 16.4353 1.51476 15.9863 1.96387L9.78809 8.16113L15.9863 14.3604C16.4351 14.8094 16.4351 15.5373 15.9863 15.9863C15.5373 16.4353 14.8095 16.4352 14.3604 15.9863L8.16113 9.78711L1.96289 15.9863C1.51377 16.4352 0.785927 16.4353 0.336914 15.9863C-0.111796 15.5373 -0.111819 14.8094 0.336914 14.3604L6.53418 8.16113L0.336914 1.96387C-0.111978 1.51475 -0.112118 0.785947 0.336914 0.336914C0.785963 -0.111922 1.51481 -0.111912 1.96387 0.336914L8.16113 6.53418L14.3594 0.336914Z" fill="#151515"/>
</svg>
