<svg width="33" height="32" viewBox="0 0 33 32" fill="none" xmlns="http://www.w3.org/2000/svg">
<path d="M15.4374 1.79541C15.8086 1.06816 16.8477 1.06816 17.2188 1.79541L21.193 9.58275C21.3383 9.86747 21.6109 10.0656 21.9266 10.1158L30.5609 11.489C31.3673 11.6172 31.6884 12.6055 31.1114 13.1832L24.9333 19.3693C24.7074 19.5955 24.6032 19.916 24.653 20.2317L26.0152 28.8678C26.1424 29.6743 25.3017 30.2851 24.574 29.9149L16.7815 25.9507C16.4966 25.8058 16.1596 25.8058 15.8747 25.9507L8.08227 29.9149C7.35455 30.2851 6.51386 29.6743 6.64107 28.8678L8.00321 20.2317C8.05301 19.916 7.94886 19.5955 7.72298 19.3693L1.54485 13.1832C0.967884 12.6055 1.289 11.6172 2.09535 11.489L10.7296 10.1158C11.0453 10.0656 11.318 9.86747 11.4633 9.58275L15.4374 1.79541Z" fill="#02283D" stroke="#02283D" stroke-width="2.5"/>
</svg>
