<svg width="138" height="130" viewBox="0 0 138 130" fill="none" xmlns="http://www.w3.org/2000/svg">
<path d="M124.262 0.5C125.522 0.5 126.731 1.00238 127.622 1.89648C128.513 2.79054 129.013 4.00302 129.013 5.2666C129.013 6.53019 128.513 7.74266 127.622 8.63672C126.731 9.53085 125.522 10.0332 124.262 10.0332H118.635L136.821 53.8428L136.822 53.8447C137.298 55.0039 137.527 56.2499 137.497 57.5029V57.5088C137.251 64.2609 134.406 70.6546 129.56 75.3447C124.713 80.035 118.242 82.6562 111.509 82.6562C104.776 82.6562 98.3056 80.0348 93.459 75.3447C88.6123 70.6546 85.7663 64.2609 85.5205 57.5088V57.5029C85.4901 56.2499 85.7199 55.0039 86.1953 53.8447L86.1963 53.8428L104.384 10.0332H73.751V94.3662H103.007C107.65 94.3662 112.102 96.2181 115.385 99.5127C118.667 102.807 120.511 107.275 120.511 111.934C120.511 116.592 118.667 121.06 115.385 124.354C112.102 127.649 107.65 129.5 103.007 129.5H34.9932C30.3504 129.5 25.8976 127.649 22.6152 124.354C19.3329 121.06 17.4893 116.592 17.4893 111.934C17.4893 107.275 19.3329 102.807 22.6152 99.5127C25.8977 96.2181 30.3503 94.3662 34.9932 94.3662H64.249V10.0332H33.6162L51.8037 53.8428L51.8047 53.8447C52.2801 55.0039 52.5099 56.2499 52.4795 57.5029V57.5088C52.2337 64.2609 49.3877 70.6546 44.541 75.3447C39.6944 80.0348 33.2243 82.6562 26.4912 82.6562C19.7579 82.6562 13.2872 80.035 8.44043 75.3447C3.59378 70.6546 0.748693 64.2609 0.50293 57.5088V57.5029C0.472567 56.2499 0.702303 55.0039 1.17773 53.8447L1.17871 53.8428L19.3652 10.0332H13.7383C12.4777 10.0332 11.2688 9.53085 10.3779 8.63672C9.48719 7.74266 8.9873 6.53019 8.9873 5.2666C8.98732 4.00302 9.48718 2.79053 10.3779 1.89648C11.2688 1.00237 12.4777 0.5 13.7383 0.5H124.262ZM34.9932 103.9C32.8716 103.9 30.8357 104.746 29.335 106.252C27.8341 107.758 26.9912 109.802 26.9912 111.934C26.9913 114.065 27.8343 116.108 29.335 117.614C30.8357 119.121 32.8716 119.967 34.9932 119.967H103.007C105.128 119.967 107.164 119.121 108.665 117.614C110.166 116.108 111.009 114.065 111.009 111.934C111.009 109.802 110.166 107.758 108.665 106.252C107.164 104.746 105.128 103.9 103.007 103.9H34.9932ZM10.6816 61.2334C11.6695 64.5341 13.66 67.4491 16.3828 69.5654C19.2762 71.8143 22.8322 73.0341 26.4912 73.0332C30.1502 73.0341 33.7063 71.8143 36.5996 69.5654C39.3223 67.4491 41.313 64.5341 42.3008 61.2334H10.6816ZM95.7012 61.2334C96.6917 64.5316 98.6821 67.4442 101.404 69.5586C104.297 71.8055 107.851 73.0244 111.509 73.0244C115.166 73.0244 118.721 71.8057 121.614 69.5586C124.336 67.4442 126.327 64.5316 127.317 61.2334H95.7012ZM97.3799 51.7002H125.639L111.509 17.6641L97.3799 51.7002ZM12.3613 51.7002H40.6201L26.4902 17.6641L12.3613 51.7002Z" fill="#E0E9ED" stroke="#E6E6E6"/>
</svg>
