<svg width="149" height="149" viewBox="0 0 149 149" fill="none" xmlns="http://www.w3.org/2000/svg">
<path d="M51.502 89.833C51.502 102.537 72.0946 112.833 97.5019 112.833C122.909 112.833 143.502 102.537 143.502 89.833C143.502 77.1293 122.909 66.833 97.5019 66.833C72.0946 66.833 51.502 77.1293 51.502 89.833Z" stroke="#DCE6EB" stroke-width="11" stroke-linecap="round" stroke-linejoin="round"/>
<path d="M51.5 89.8333V120.5C51.5 133.196 72.0927 143.5 97.5 143.5C122.907 143.5 143.5 133.196 143.5 120.5V89.8333M5.5 28.5C5.5 36.7187 14.2707 44.3087 28.5 48.418C42.7293 52.5273 60.2707 52.5273 74.5 48.418C88.7293 44.3087 97.5 36.7187 97.5 28.5C97.5 20.2813 88.7293 12.6913 74.5 8.582C60.2707 4.47267 42.7293 4.47267 28.5 8.582C14.2707 12.6913 5.5 20.2813 5.5 28.5Z" stroke="#DCE6EB" stroke-width="11" stroke-linecap="round" stroke-linejoin="round"/>
<path d="M5.5 28.502V105.169C5.5 111.977 11.4187 116.285 20.8333 120.502" stroke="#DCE6EB" stroke-width="11" stroke-linecap="round" stroke-linejoin="round"/>
<path d="M5.5 66.833C5.5 73.641 11.4187 77.9497 20.8333 82.1663" stroke="#DCE6EB" stroke-width="11" stroke-linecap="round" stroke-linejoin="round"/>
</svg>
