<svg width="258" height="287" viewBox="0 0 258 287" fill="none" xmlns="http://www.w3.org/2000/svg">
<path fill-rule="evenodd" clip-rule="evenodd" d="M105.133 167.758C101.98 160.484 99.0752 153.812 97.4344 150.187L90.2608 133.56L53.0576 120.644L7.38918e-05 42.6503L6.8636 35.7868L89.9604 96.5329L92.8174 93.6759L92.8221 93.6712C92.9605 93.5424 93.0987 93.4041 93.2418 93.2515L93.2466 93.2467L93.2561 93.2372C93.404 93.0988 93.5423 92.9605 93.6759 92.8174L93.6806 92.8127L96.5376 89.9556L35.7867 6.86366L42.6503 0.000139823L120.648 53.0529L133.56 90.2609L150.191 97.4297C153.816 99.0705 160.489 101.975 167.763 105.128L170.391 98.7413L285.625 147.001L357.027 218.402L330.56 244.869L264.372 178.681L156.149 133.359L158.629 127.321L148.26 123.419L135.93 135.93L123.424 148.255L127.321 158.629L133.364 156.144L178.685 264.367L244.874 330.556L218.402 357.027L147.001 285.626L98.746 170.386L105.133 167.758ZM107.546 107.546C103.158 111.934 103.158 119.06 107.546 123.448C111.939 127.841 119.065 127.841 123.453 123.453C127.846 119.06 127.846 111.934 123.453 107.541C119.065 103.153 111.939 103.153 107.546 107.546Z" fill="#DCE6EB"/>
</svg>
