<svg width="52" height="52" viewBox="0 0 52 52" fill="none" xmlns="http://www.w3.org/2000/svg">
<path d="M46.592 39.8253H41.6477C39.7778 39.8253 39.2145 38.3108 35.8627 34.9568C32.9333 32.1336 31.6962 31.7826 30.9552 31.7826C29.9303 31.7826 29.6508 32.0643 29.6508 33.4748V37.9208C29.6508 39.1233 29.2608 39.8275 26.1192 39.8275C23.0713 39.6227 20.1157 38.6968 17.4958 37.126C14.8758 35.5552 12.6666 33.3844 11.05 30.7925C7.21286 26.0142 4.54222 20.4073 3.25 14.4168C3.25 13.6758 3.53167 13.0041 4.94433 13.0041H9.88433C11.154 13.0041 11.6112 13.5696 12.1095 14.8761C14.508 21.9351 18.6008 28.0755 20.2627 28.0755C20.8997 28.0755 21.177 27.7938 21.177 26.2056V18.9343C20.9668 15.6171 19.2053 15.3376 19.2053 14.1373C19.2276 13.8206 19.3725 13.5251 19.6091 13.3135C19.8458 13.1019 20.1556 12.9909 20.4728 13.0041H28.2382C29.2998 13.0041 29.6508 13.5328 29.6508 14.8025V24.6175C29.6508 25.677 30.1058 26.028 30.4265 26.028C31.0635 26.028 31.5532 25.677 32.721 24.5113C35.2233 21.4577 37.2683 18.0566 38.792 14.4146C38.9472 13.9769 39.2417 13.6021 39.6303 13.3477C40.0189 13.0934 40.4802 12.9734 40.9435 13.0063H45.8857C47.3677 13.0063 47.6818 13.7473 47.3677 14.8046C45.5696 18.8309 43.3455 22.6531 40.7333 26.2056C40.2003 27.0181 39.988 27.4406 40.7333 28.394C41.223 29.135 42.9563 30.5823 44.1198 31.9581C45.8142 33.6481 47.2203 35.6025 48.2842 37.7431C48.7088 39.1211 48.0025 39.8253 46.592 39.8253Z" fill="#151515"/>
</svg>
