<svg width="78" height="82" viewBox="0 0 78 82" fill="none" xmlns="http://www.w3.org/2000/svg">
<path d="M15.5634 80C10.8157 80 8.44193 80 6.62858 79.0554C5.03351 78.2245 3.73668 76.8987 2.92395 75.2679C2 73.414 2 70.9871 2 66.1333V15.8667C2 11.0129 2 8.58598 2.92395 6.73208C3.73668 5.10134 5.03351 3.77551 6.62858 2.94461C8.44193 2 10.8157 2 15.5634 2H56.2534C61.0011 2 63.3749 2 65.1882 2.94461C66.7833 3.77551 68.0801 5.10134 68.8928 6.73208C69.8168 8.58598 69.8168 11.0129 69.8168 15.8667V19.3333M18.9542 19.3333H44.3855M18.9542 54H23.1927M18.9542 36.6667H35.9084M32.4982 79.5429L38.071 78.4169C41.0781 77.8094 42.5816 77.5056 43.9837 76.946C45.2281 76.4493 46.4108 75.804 47.5071 75.0235C48.7422 74.1441 49.8259 73.0361 51.9934 70.8202L73.8153 48.5103C76.7282 45.5322 76.7282 40.7038 73.8153 37.7257C70.9023 34.7476 66.1795 34.7476 63.2665 37.7257L41.0716 60.4169C39.0406 62.4933 38.0252 63.5315 37.205 64.7083C36.4769 65.7531 35.8645 66.8773 35.3791 68.0602C34.8322 69.3927 34.5036 70.822 33.8463 73.6805L32.4982 79.5429Z" stroke="black" stroke-width="4" stroke-linecap="round" stroke-linejoin="round"/>
</svg>
