<svg width="33" height="32" viewBox="0 0 33 32" fill="none" xmlns="http://www.w3.org/2000/svg">
<path d="M15.4374 1.79565C15.8086 1.0684 16.8477 1.0684 17.2188 1.79565L21.193 9.58299C21.3383 9.86771 21.6109 10.0658 21.9266 10.116L30.5609 11.4892C31.3673 11.6175 31.6884 12.6058 31.1114 13.1835L24.9333 19.3695C24.7074 19.5957 24.6032 19.9162 24.653 20.232L26.0152 28.868C26.1424 29.6745 25.3017 30.2853 24.574 29.9151L16.7815 25.951C16.4966 25.806 16.1596 25.806 15.8747 25.951L8.08227 29.9151C7.35455 30.2853 6.51386 29.6745 6.64107 28.868L8.00321 20.232C8.05301 19.9162 7.94886 19.5957 7.72298 19.3695L1.54485 13.1835C0.967884 12.6058 1.289 11.6175 2.09535 11.4892L10.7296 10.116C11.0453 10.0658 11.318 9.86771 11.4633 9.58299L15.4374 1.79565Z" stroke="#02283D" stroke-width="2.5"/>
</svg>
