<svg width="33" height="31" viewBox="0 0 33 31" fill="none" xmlns="http://www.w3.org/2000/svg">
<path d="M17.3861 1.9188L21.0215 9.34992C21.173 9.64717 21.476 9.94442 21.9304 9.94442L30.2617 11.1334C31.1706 11.282 31.625 12.471 30.8676 13.0655L24.8085 18.8618C24.5055 19.159 24.3541 19.4563 24.5055 19.9021L25.8689 27.9277C26.0203 28.8195 24.96 29.5626 24.2026 29.1167L16.7802 25.2525C16.4772 25.1039 16.0228 25.1039 15.7198 25.2525L8.29741 29.1167C7.38854 29.5626 6.47967 28.8195 6.63114 27.9277L7.99446 19.9021C7.99446 19.6049 7.99446 19.159 7.69151 18.8618L1.63239 13.0655C0.875003 12.471 1.32943 11.282 2.23829 11.1334L10.5696 9.94442C11.024 9.94442 11.327 9.64717 11.4785 9.34992L15.1139 1.9188C15.7198 1.02707 16.9317 1.02707 17.3861 1.9188Z" stroke="#02283D" stroke-width="2.5" stroke-miterlimit="10" stroke-linecap="round"/>
</svg>
