<svg width="35" height="35" viewBox="0 0 35 35" fill="none" xmlns="http://www.w3.org/2000/svg">
<path d="M8.75 13.125C8.75 15.4456 9.67187 17.6712 11.3128 19.3122C12.9538 20.9531 15.1794 21.875 17.5 21.875C19.8206 21.875 22.0462 20.9531 23.6872 19.3122C25.3281 17.6712 26.25 15.4456 26.25 13.125C26.25 10.8044 25.3281 8.57876 23.6872 6.93782C22.0462 5.29687 19.8206 4.375 17.5 4.375C15.1794 4.375 12.9538 5.29687 11.3128 6.93782C9.67187 8.57876 8.75 10.8044 8.75 13.125Z" stroke="#151515" stroke-width="2" stroke-linecap="round" stroke-linejoin="round"/>
<path d="M17.4997 21.875L22.458 30.4646L24.7884 25.7498L30.0355 26.0881L25.0772 17.5M9.91927 17.5L4.96094 26.0896L10.208 25.7498L12.5384 30.4631L17.4968 21.875" stroke="#151515" stroke-width="2" stroke-linecap="round" stroke-linejoin="round"/>
</svg>
