<svg width="269" height="217" viewBox="0 0 269 217" fill="none" xmlns="http://www.w3.org/2000/svg">
<path fill-rule="evenodd" clip-rule="evenodd" d="M60.629 63H93.3749V85.6986C97.022 86.7978 100.518 88.2543 103.815 90.0294L119.871 73.9725L143.024 97.1294L126.971 113.182C128.746 116.48 130.203 119.976 131.302 123.627H154V156.373H131.302C130.203 160.024 128.746 163.516 126.971 166.818L143.024 182.871L119.871 206.027L103.815 189.971C100.518 191.746 97.022 193.202 93.3749 194.301V217H60.629V194.301C56.9781 193.202 53.4825 191.746 50.185 189.971L34.1286 206.027L10.9761 182.871L27.0287 166.818C25.2576 163.516 23.8011 160.024 22.698 156.373H0V123.627H22.698C23.8011 119.976 25.2576 116.48 27.0287 113.182L10.9761 97.1294L34.1325 73.9725L50.185 90.0294C53.4825 88.2543 56.9781 86.7978 60.629 85.6986V63ZM77 112.277C92.3107 112.277 104.724 124.687 104.724 139.998C104.724 155.313 92.3107 167.723 77 167.723C61.6893 167.723 49.2761 155.313 49.2761 139.998C49.2761 124.687 61.6893 112.277 77 112.277Z" fill="#DCE6EB"/>
<path fill-rule="evenodd" clip-rule="evenodd" d="M240.784 31.3674L250.566 48.309L238.822 55.0891C239.343 57.3043 239.633 59.5478 239.7 61.7841L252.803 65.2949L247.738 84.1902L234.638 80.6802C233.462 82.5835 232.089 84.3812 230.528 86.0404L237.308 97.7836L220.366 107.565L213.586 95.8219C211.369 96.3438 209.127 96.6333 206.889 96.7011L203.379 109.801L184.483 104.74L187.994 91.6367C186.09 90.4608 184.293 89.0874 182.635 87.5289L170.891 94.309L161.11 77.3674L172.853 70.5873C172.332 68.3701 172.041 66.1265 171.974 63.8903L158.871 60.3794L163.936 41.4842L177.036 44.9942C178.215 43.0917 179.587 41.2952 181.146 39.6339L174.366 27.8907L191.308 18.1093L198.088 29.8524C200.306 29.3326 202.55 29.0419 204.785 28.9732L208.296 15.8732L227.193 20.9365L223.681 34.0377C225.584 35.2135 227.382 36.5869 229.041 38.1475L240.784 31.3674ZM220.18 54.5564C224.753 62.4776 222.041 72.6065 214.119 77.18C206.196 81.7546 196.068 79.0392 191.494 71.118C186.921 63.1967 189.634 53.0678 197.557 48.4932C205.478 43.9198 215.607 46.6352 220.18 54.5564Z" fill="#DCE6EB"/>
</svg>
