<svg width="1780" height="58" viewBox="0 0 1780 58" fill="none" xmlns="http://www.w3.org/2000/svg">
<rect x="48" y="23" width="1728" height="16" fill="url(#paint0_linear_0_1)"/>
<rect y="4" width="54" height="54" rx="27" fill="#E65B29"/>
<path d="M27.576 20.12H30.872V43H27.064V24.184L21.656 28.248V24.376L27.576 20.12Z" fill="white"/>
<rect x="631" y="4" width="54" height="54" rx="27" fill="#EA7128"/>
<path d="M665.64 43H650.6V39.896L658.536 32.248C659.389 31.3947 660.061 30.648 660.552 30.008C661.043 29.368 661.395 28.76 661.608 28.184C661.821 27.608 661.928 27.0213 661.928 26.424C661.928 25.3147 661.587 24.44 660.904 23.8C660.243 23.16 659.336 22.84 658.184 22.84C657.096 22.84 656.115 23.128 655.24 23.704C654.365 24.28 653.544 25.1867 652.776 26.424L650.28 23.992C651.304 22.5413 652.477 21.4533 653.8 20.728C655.144 19.9813 656.605 19.608 658.184 19.608C659.699 19.608 661 19.8853 662.088 20.44C663.197 20.9733 664.061 21.7413 664.68 22.744C665.299 23.7467 665.608 24.9093 665.608 26.232C665.608 27.2347 665.437 28.1733 665.096 29.048C664.776 29.9227 664.221 30.8507 663.432 31.832C662.643 32.792 661.565 33.9333 660.2 35.256L655.464 39.896H665.64V43Z" fill="white"/>
<rect x="1262" y="4" width="55" height="54" rx="27" fill="#F58725"/>
<path d="M1281.06 39.448L1283.49 37.016C1284.3 38.1893 1285.15 39.0427 1286.05 39.576C1286.94 40.088 1287.94 40.344 1289.02 40.344C1289.86 40.344 1290.61 40.1947 1291.3 39.896C1291.98 39.5973 1292.51 39.1493 1292.9 38.552C1293.3 37.9547 1293.5 37.2293 1293.5 36.376C1293.5 35.2667 1293.1 34.3813 1292.29 33.72C1291.5 33.0587 1290.4 32.728 1288.99 32.728H1287.01V29.56H1288.99C1290.17 29.56 1291.1 29.2507 1291.81 28.632C1292.51 27.992 1292.86 27.192 1292.86 26.232C1292.86 25.2293 1292.52 24.4187 1291.84 23.8C1291.16 23.16 1290.27 22.84 1289.18 22.84C1288.14 22.84 1287.2 23.096 1286.37 23.608C1285.56 24.0987 1284.77 24.9093 1284 26.04L1281.54 23.48C1282.54 22.2 1283.7 21.24 1285.02 20.6C1286.37 19.9387 1287.83 19.608 1289.41 19.608C1290.84 19.608 1292.11 19.8853 1293.22 20.44C1294.33 20.9733 1295.2 21.7307 1295.84 22.712C1296.48 23.672 1296.8 24.7707 1296.8 26.008C1296.8 27.096 1296.49 28.056 1295.87 28.888C1295.25 29.6987 1294.4 30.3387 1293.31 30.808C1292.22 31.2773 1290.97 31.512 1289.54 31.512L1289.86 30.328C1291.39 30.328 1292.73 30.584 1293.86 31.096C1294.99 31.5867 1295.86 32.2907 1296.48 33.208C1297.1 34.1253 1297.41 35.224 1297.41 36.504C1297.41 37.8693 1297.06 39.0853 1296.35 40.152C1295.67 41.1973 1294.72 42.0187 1293.5 42.616C1292.29 43.2133 1290.87 43.512 1289.25 43.512C1287.5 43.512 1285.93 43.1707 1284.54 42.488C1283.18 41.8053 1282.02 40.792 1281.06 39.448Z" fill="white"/>
<rect x="1723" width="57" height="56" rx="28" fill="#FC9524"/>
<path d="M1740 29.7907L1749.67 39L1763 17" stroke="white" stroke-width="4"/>
<defs>
<linearGradient id="paint0_linear_0_1" x1="48" y1="31" x2="1776" y2="31" gradientUnits="userSpaceOnUse">
<stop stop-color="#E65B29"/>
<stop offset="1" stop-color="#FE9823"/>
</linearGradient>
</defs>
</svg>
