<svg width="43" height="43" viewBox="0 0 43 43" fill="none" xmlns="http://www.w3.org/2000/svg">
<path d="M13.4317 3.92017H28.1317C33.7317 3.92017 38.2817 8.47017 38.2817 14.0702V28.7702C38.2817 31.4621 37.2124 34.0438 35.3089 35.9473C33.4054 37.8508 30.8237 38.9202 28.1317 38.9202H13.4317C7.83174 38.9202 3.28174 34.3702 3.28174 28.7702V14.0702C3.28174 11.3782 4.35111 8.79653 6.2546 6.89303C8.1581 4.98954 10.7398 3.92017 13.4317 3.92017ZM13.0817 7.42017C11.4109 7.42017 9.80844 8.08391 8.62697 9.26539C7.44549 10.4469 6.78174 12.0493 6.78174 13.7202V29.1202C6.78174 32.6027 9.59924 35.4202 13.0817 35.4202H28.4817C30.1526 35.4202 31.755 34.7564 32.9365 33.5749C34.118 32.3935 34.7817 30.791 34.7817 29.1202V13.7202C34.7817 10.2377 31.9642 7.42017 28.4817 7.42017H13.0817ZM29.9692 10.0452C30.5494 10.0452 31.1058 10.2756 31.516 10.6859C31.9263 11.0961 32.1567 11.6525 32.1567 12.2327C32.1567 12.8128 31.9263 13.3692 31.516 13.7795C31.1058 14.1897 30.5494 14.4202 29.9692 14.4202C29.3891 14.4202 28.8327 14.1897 28.4224 13.7795C28.0122 13.3692 27.7817 12.8128 27.7817 12.2327C27.7817 11.6525 28.0122 11.0961 28.4224 10.6859C28.8327 10.2756 29.3891 10.0452 29.9692 10.0452ZM20.7817 12.6702C23.1024 12.6702 25.328 13.592 26.9689 15.233C28.6099 16.8739 29.5317 19.0995 29.5317 21.4202C29.5317 23.7408 28.6099 25.9664 26.9689 27.6073C25.328 29.2483 23.1024 30.1702 20.7817 30.1702C18.4611 30.1702 16.2355 29.2483 14.5946 27.6073C12.9536 25.9664 12.0317 23.7408 12.0317 21.4202C12.0317 19.0995 12.9536 16.8739 14.5946 15.233C16.2355 13.592 18.4611 12.6702 20.7817 12.6702ZM20.7817 16.1702C19.3894 16.1702 18.054 16.7233 17.0694 17.7079C16.0849 18.6924 15.5317 20.0278 15.5317 21.4202C15.5317 22.8126 16.0849 24.1479 17.0694 25.1325C18.054 26.117 19.3894 26.6702 20.7817 26.6702C22.1741 26.6702 23.5095 26.117 24.494 25.1325C25.4786 24.1479 26.0317 22.8126 26.0317 21.4202C26.0317 20.0278 25.4786 18.6924 24.494 17.7079C23.5095 16.7233 22.1741 16.1702 20.7817 16.1702Z" fill="#0F242F"/>
</svg>
