<svg width="225" height="225" viewBox="0 0 225 225" fill="none" xmlns="http://www.w3.org/2000/svg">
<rect width="225" height="225" rx="11" fill="#F4F5F5"/>
<path d="M148.311 149.451H76.4059C69.5326 149.451 63.7168 143.622 63.7168 136.733V90.1007C63.7168 83.2118 69.5326 77.3828 76.4059 77.3828H148.311C155.184 77.3828 161 83.2118 161 90.1007V136.733C161 143.622 155.184 149.451 148.311 149.451Z" stroke="#919191" stroke-width="4" stroke-miterlimit="10" stroke-linecap="round"/>
<path d="M64.2441 125.075L86.45 102.818C91.2084 98.0489 99.1391 98.0489 104.426 102.818L129.804 128.254" stroke="#919191" stroke-width="4" stroke-miterlimit="10" stroke-linecap="round"/>
<path d="M122.936 120.835L135.096 108.647C137.739 105.998 141.969 105.998 144.613 108.647L160.474 124.545" stroke="#919191" stroke-width="4" stroke-miterlimit="10" stroke-linecap="round"/>
<path d="M122.932 99.11C125.852 99.11 128.219 96.7375 128.219 93.8109C128.219 90.8842 125.852 88.5117 122.932 88.5117C120.012 88.5117 117.645 90.8842 117.645 93.8109C117.645 96.7375 120.012 99.11 122.932 99.11Z" fill="#919191"/>
</svg>
