<svg width="375" height="14" viewBox="0 0 375 14" fill="none" xmlns="http://www.w3.org/2000/svg">
<mask id="mask0_1355_570" style="mask-type:alpha" maskUnits="userSpaceOnUse" x="0" y="0" width="375" height="14">
<path d="M0 0H375V14H0V0Z" fill="#D9D9D9"/>
</mask>
<g mask="url(#mask0_1355_570)">
<path d="M-159.962 -27.5884L-132.907 -32.8988L5.62375 48.672C12.1846 52.5353 11.4466 56.8558 3.97536 58.3223C-3.49591 59.7887 -14.8712 57.8457 -21.4321 53.9824L-159.962 -27.5884Z" fill="white"/>
<path d="M-88.7843 -27.5884L-61.7285 -32.8988L76.8018 48.672C83.3627 52.5353 82.6247 56.8558 75.1535 58.3223C67.6822 59.7887 56.3068 57.8457 49.7459 53.9824L-88.7843 -27.5884Z" fill="white"/>
<path d="M-17.6051 -27.5884L9.45082 -32.8988L147.981 48.672C154.542 52.5353 153.804 56.8558 146.333 58.3223C138.861 59.7887 127.486 57.8457 120.925 53.9824L-17.6051 -27.5884Z" fill="white"/>
<path d="M53.5741 -27.5884L80.6299 -32.8988L219.16 48.672C225.721 52.5353 224.983 56.8558 217.512 58.3223C210.041 59.7887 198.665 57.8457 192.104 53.9824L53.5741 -27.5884Z" fill="white"/>
<path d="M124.753 -27.5884L151.809 -32.8988L290.339 48.672C296.9 52.5353 296.162 56.8558 288.691 58.3223C281.22 59.7887 269.844 57.8457 263.283 53.9824L124.753 -27.5884Z" fill="white"/>
<path d="M195.288 -27.5884L222.344 -32.8988L360.874 48.672C367.435 52.5353 366.697 56.8558 359.226 58.3223C351.755 59.7887 340.379 57.8457 333.818 53.9824L195.288 -27.5884Z" fill="white"/>
<path d="M266.467 -27.5884L293.522 -32.8988L432.053 48.672C438.614 52.5353 437.876 56.8558 430.404 58.3223C422.933 59.7887 411.558 57.8457 404.997 53.9824L266.467 -27.5884Z" fill="white"/>
<path d="M337.002 -27.5884L364.057 -32.8988L502.588 48.672C509.149 52.5353 508.411 56.8558 500.939 58.3223C493.468 59.7887 482.093 57.8457 475.532 53.9824L337.002 -27.5884Z" fill="white"/>
<path d="M-125.18 -27.5884L-98.1242 -32.8988L40.4061 48.672C46.967 52.5353 46.229 56.8558 38.7577 58.3223C31.2865 59.7887 19.9111 57.8457 13.3502 53.9824L-125.18 -27.5884Z" fill="#1A1F22"/>
<path d="M-54.0007 -27.5884L-26.9448 -32.8988L111.585 48.672C118.146 52.5353 117.408 56.8558 109.937 58.3223C102.466 59.7887 91.0905 57.8457 84.5296 53.9824L-54.0007 -27.5884Z" fill="#1A1F22"/>
<path d="M17.1783 -27.5884L44.2342 -32.8988L182.765 48.672C189.325 52.5353 188.587 56.8558 181.116 58.3223C173.645 59.7887 162.27 57.8457 155.709 53.9824L17.1783 -27.5884Z" fill="#1A1F22"/>
<path d="M88.3575 -27.5884L115.413 -32.8988L253.944 48.672C260.505 52.5353 259.767 56.8558 252.295 58.3223C244.824 59.7887 233.449 57.8457 226.888 53.9824L88.3575 -27.5884Z" fill="#1A1F22"/>
<path d="M159.536 -27.5884L186.592 -32.8988L325.122 48.672C331.683 52.5353 330.945 56.8558 323.474 58.3223C316.002 59.7887 304.627 57.8457 298.066 53.9824L159.536 -27.5884Z" fill="#1A1F22"/>
<path d="M301.25 -27.5884L328.306 -32.8988L466.836 48.672C473.397 52.5353 472.659 56.8558 465.188 58.3223C457.717 59.7887 446.341 57.8457 439.78 53.9824L301.25 -27.5884Z" fill="#1A1F22"/>
<path d="M230.071 -27.5884L257.127 -32.8988L395.657 48.672C402.218 52.5353 401.48 56.8558 394.009 58.3223C386.537 59.7887 375.162 57.8457 368.601 53.9824L230.071 -27.5884Z" fill="#1A1F22"/>
<path d="M371.785 -27.5884L398.841 -32.8988L537.371 48.672C543.932 52.5353 543.194 56.8558 535.723 58.3223C528.251 59.7887 516.876 57.8457 510.315 53.9824L371.785 -27.5884Z" fill="#1A1F22"/>
</g>
</svg>
