<svg width="54" height="54" viewBox="0 0 54 54" fill="none" xmlns="http://www.w3.org/2000/svg">
<rect width="54" height="54" rx="27" fill="#02283D"/>
<path d="M34.64 39H19.6V35.896L27.536 28.248C28.3893 27.3947 29.0613 26.648 29.552 26.008C30.0427 25.368 30.3947 24.76 30.608 24.184C30.8213 23.608 30.928 23.0213 30.928 22.424C30.928 21.3147 30.5867 20.44 29.904 19.8C29.2427 19.16 28.336 18.84 27.184 18.84C26.096 18.84 25.1147 19.128 24.24 19.704C23.3653 20.28 22.544 21.1867 21.776 22.424L19.28 19.992C20.304 18.5413 21.4773 17.4533 22.8 16.728C24.144 15.9813 25.6053 15.608 27.184 15.608C28.6987 15.608 30 15.8853 31.088 16.44C32.1973 16.9733 33.0613 17.7413 33.68 18.744C34.2987 19.7467 34.608 20.9093 34.608 22.232C34.608 23.2347 34.4373 24.1733 34.096 25.048C33.776 25.9227 33.2213 26.8507 32.432 27.832C31.6427 28.792 30.5653 29.9333 29.2 31.256L24.464 35.896H34.64V39Z" fill="white"/>
</svg>
