<svg width="55" height="55" viewBox="0 0 55 55" fill="none" xmlns="http://www.w3.org/2000/svg">
<path d="M27.5 0C22.061 0 16.7442 1.61285 12.2218 4.63458C7.69948 7.65632 4.17473 11.9512 2.09332 16.9762C0.0119153 22.0012 -0.532676 27.5305 0.528417 32.865C1.58951 38.1995 4.20863 43.0995 8.05457 46.9454C11.9005 50.7914 16.8005 53.4105 22.135 54.4716C27.4695 55.5327 32.9988 54.9881 38.0238 52.9067C43.0488 50.8253 47.3437 47.3005 50.3654 42.7782C53.3872 38.2558 55 32.939 55 27.5C55 20.2065 52.1027 13.2118 46.9454 8.05456C41.7882 2.89731 34.7935 0 27.5 0ZM23.5714 38.4803L13.75 28.6589L16.8732 25.5357L23.5714 32.2339L38.1268 17.6786L41.2618 20.7939L23.5714 38.4803Z" fill="#02283D"/>
</svg>
