<svg width="55" height="54" viewBox="0 0 55 54" fill="none" xmlns="http://www.w3.org/2000/svg">
<rect width="55" height="54" rx="27" fill="#F58725"/>
<path d="M19.056 35.448L21.488 33.016C22.2987 34.1893 23.152 35.0427 24.048 35.576C24.944 36.088 25.936 36.344 27.024 36.344C27.856 36.344 28.6133 36.1947 29.296 35.896C29.9787 35.5973 30.512 35.1493 30.896 34.552C31.3013 33.9547 31.504 33.2293 31.504 32.376C31.504 31.2667 31.0987 30.3813 30.288 29.72C29.4987 29.0587 28.4 28.728 26.992 28.728H25.008V25.56H26.992C28.1653 25.56 29.104 25.2507 29.808 24.632C30.512 23.992 30.864 23.192 30.864 22.232C30.864 21.2293 30.5227 20.4187 29.84 19.8C29.1573 19.16 28.272 18.84 27.184 18.84C26.1387 18.84 25.2 19.096 24.368 19.608C23.5573 20.0987 22.768 20.9093 22 22.04L19.536 19.48C20.5387 18.2 21.7013 17.24 23.024 16.6C24.368 15.9387 25.8293 15.608 27.408 15.608C28.8373 15.608 30.1067 15.8853 31.216 16.44C32.3253 16.9733 33.2 17.7307 33.84 18.712C34.48 19.672 34.8 20.7707 34.8 22.008C34.8 23.096 34.4907 24.056 33.872 24.888C33.2533 25.6987 32.4 26.3387 31.312 26.808C30.224 27.2773 28.9653 27.512 27.536 27.512L27.856 26.328C29.392 26.328 30.7253 26.584 31.856 27.096C32.9867 27.5867 33.8613 28.2907 34.48 29.208C35.0987 30.1253 35.408 31.224 35.408 32.504C35.408 33.8693 35.056 35.0853 34.352 36.152C33.6693 37.1973 32.72 38.0187 31.504 38.616C30.288 39.2133 28.8693 39.512 27.248 39.512C25.4987 39.512 23.9307 39.1707 22.544 38.488C21.1787 37.8053 20.016 36.792 19.056 35.448Z" fill="white"/>
</svg>
