<svg width="29" height="28" viewBox="0 0 29 28" fill="none" xmlns="http://www.w3.org/2000/svg">
<path d="M7.80997 24.0725H6.88634C5.26999 24.0725 4 22.8262 4 21.2401V5.83232C4 4.24622 5.26999 3 6.88634 3H19.8172C21.4335 3 22.7035 4.24622 22.7035 5.83232V8.89122" stroke="#151515" stroke-width="2" stroke-miterlimit="10" stroke-linecap="round" stroke-linejoin="round"/>
<path d="M13.1389 24.0762L13.9471 22.2635C14.0625 21.4705 14.4089 20.7907 14.9862 20.2242L21.567 13.7665C22.2597 13.0868 23.2988 13.0868 23.8761 13.7665L24.5688 14.4463C25.1461 15.0128 25.1461 15.9191 24.5688 16.5989L17.8725 23.1698C17.2952 23.7363 16.6025 24.0762 15.7943 24.1895L14.0625 24.9825C13.4853 25.0958 13.0235 24.6426 13.1389 24.0762Z" stroke="#151515" stroke-width="2" stroke-miterlimit="10" stroke-linecap="round" stroke-linejoin="round"/>
<path d="M8.05469 8.23761H17.174" stroke="black" stroke-width="2" stroke-miterlimit="10" stroke-linecap="round" stroke-linejoin="round"/>
<path d="M8.05469 12.2529H13.121" stroke="black" stroke-width="2" stroke-miterlimit="10" stroke-linecap="round" stroke-linejoin="round"/>
<path d="M8.05469 16.2682H10.0812" stroke="black" stroke-width="2" stroke-miterlimit="10" stroke-linecap="round" stroke-linejoin="round"/>
</svg>
