<svg width="28" height="28" viewBox="0 0 28 28" fill="none" xmlns="http://www.w3.org/2000/svg">
<path d="M1.25 23.125C1.25 21.4674 1.90848 19.8777 3.08058 18.7056C4.25268 17.5335 5.8424 16.875 7.5 16.875H20C21.6576 16.875 23.2473 17.5335 24.4194 18.7056C25.5915 19.8777 26.25 21.4674 26.25 23.125C26.25 23.9538 25.9208 24.7487 25.3347 25.3347C24.7487 25.9208 23.9538 26.25 23.125 26.25H4.375C3.5462 26.25 2.75134 25.9208 2.16529 25.3347C1.57924 24.7487 1.25 23.9538 1.25 23.125Z" stroke="#151515" stroke-width="2.5" stroke-linejoin="round"/>
<path d="M13.75 10.625C16.3388 10.625 18.4375 8.52633 18.4375 5.9375C18.4375 3.34867 16.3388 1.25 13.75 1.25C11.1612 1.25 9.0625 3.34867 9.0625 5.9375C9.0625 8.52633 11.1612 10.625 13.75 10.625Z" stroke="#151515" stroke-width="2.5"/>
</svg>
