<svg width="24" height="27" viewBox="0 0 24 27" fill="none" xmlns="http://www.w3.org/2000/svg">
<path d="M20.0529 24H3.94026C2.29372 24 1 22.5915 1 20.7988V9.78666C1 7.99398 2.29372 6.58545 3.94026 6.58545H20.0529C21.6994 6.58545 22.9931 7.99398 22.9931 9.78666V20.7988C23.1108 22.4634 21.6994 24 20.0529 24Z" stroke="#151515" stroke-width="2" stroke-miterlimit="10" stroke-linecap="round"/>
<path d="M1 11.1953C1 12.988 2.4113 14.3965 4.17546 14.3965H19.8177C21.5818 14.3965 22.9931 12.988 22.9931 11.1953" stroke="#151515" stroke-width="2" stroke-miterlimit="10" stroke-linecap="round"/>
<path d="M13.4658 18.6221H10.6432C10.2903 18.6221 9.9375 18.2379 9.9375 17.8538V15.1648C9.9375 14.7806 10.2903 14.3965 10.6432 14.3965H13.4658C13.8186 14.3965 14.1715 14.7806 14.1715 15.1648V17.8538C14.1715 18.366 13.8186 18.6221 13.4658 18.6221Z" stroke="black" stroke-width="2" stroke-miterlimit="10" stroke-linecap="round"/>
<path d="M16.2883 6.32926C16.2883 6.20121 16.2883 6.20121 16.2883 6.07316V4.15244C16.2883 3.5122 15.7002 3 15.1122 3H8.99642C8.29075 3 7.82031 3.5122 7.82031 4.15244V6.07316C7.82031 6.20121 7.82031 6.20121 7.82031 6.32926" stroke="black" stroke-width="2" stroke-miterlimit="10" stroke-linecap="round"/>
</svg>
