<svg width="32" height="28" viewBox="0 0 32 28" fill="none" xmlns="http://www.w3.org/2000/svg">
<path d="M16.9089 3.52549L19.8172 9.36423C19.9384 9.59778 20.1808 9.83133 20.5443 9.83133L27.2094 10.7655C27.9365 10.8823 28.3 11.8165 27.6941 12.2836L22.8468 16.8378C22.6044 17.0714 22.4832 17.3049 22.6044 17.6552L23.6951 23.9611C23.8163 24.6617 22.968 25.2456 22.3621 24.8953L16.4241 21.8591C16.1818 21.7424 15.8182 21.7424 15.5759 21.8591L9.63793 24.8953C8.91083 25.2456 8.18373 24.6617 8.30492 23.9611L9.39557 17.6552C9.39557 17.4217 9.39557 17.0714 9.15321 16.8378L4.30591 12.2836C3.7 11.8165 4.06354 10.8823 4.79064 10.7655L11.4557 9.83133C11.8192 9.83133 12.0616 9.59778 12.1828 9.36423L15.0911 3.52549C15.5759 2.82484 16.5453 2.82484 16.9089 3.52549Z" stroke="#151515" stroke-width="2" stroke-miterlimit="10" stroke-linecap="round"/>
</svg>
