<svg width="27" height="28" viewBox="0 0 27 28" fill="none" xmlns="http://www.w3.org/2000/svg">
<path d="M7.27344 7.21191H25.0003" stroke="#151515" stroke-width="2" stroke-miterlimit="10" stroke-linecap="round"/>
<path d="M7.27344 14H25.0003" stroke="#151515" stroke-width="2" stroke-miterlimit="10" stroke-linecap="round"/>
<path d="M7.27344 20.7881H25.0003" stroke="black" stroke-width="2" stroke-miterlimit="10" stroke-linecap="round"/>
<path d="M3.12195 8.42424C3.74159 8.42424 4.2439 7.88155 4.2439 7.21212C4.2439 6.54268 3.74159 6 3.12195 6C2.50231 6 2 6.54268 2 7.21212C2 7.88155 2.50231 8.42424 3.12195 8.42424Z" fill="black"/>
<path d="M3.12195 15.2123C3.74159 15.2123 4.2439 14.6696 4.2439 14.0002C4.2439 13.3308 3.74159 12.7881 3.12195 12.7881C2.50231 12.7881 2 13.3308 2 14.0002C2 14.6696 2.50231 15.2123 3.12195 15.2123Z" fill="black"/>
<path d="M3.12195 21.9999C3.74159 21.9999 4.2439 21.4572 4.2439 20.7878C4.2439 20.1184 3.74159 19.5757 3.12195 19.5757C2.50231 19.5757 2 20.1184 2 20.7878C2 21.4572 2.50231 21.9999 3.12195 21.9999Z" fill="black"/>
</svg>
