<svg width="246" height="257" viewBox="0 0 246 257" fill="none" xmlns="http://www.w3.org/2000/svg">
<mask id="mask0_1673_1914" style="mask-type:alpha" maskUnits="userSpaceOnUse" x="0" y="0" width="246" height="257">
<rect width="245.675" height="257" rx="15" fill="#FAFAFA"/>
</mask>
<g mask="url(#mask0_1673_1914)">
<path fill-rule="evenodd" clip-rule="evenodd" d="M110.131 89.588L-15.4747 -36.0174L9.28447 -60.7766L134.89 64.8288L141.549 58.1693C153.262 58.1884 164.974 58.1693 176.691 58.1693L214.761 96.2397C214.78 107.96 214.742 119.668 214.765 131.385L207.201 138.949L159.116 90.8647L136.167 113.814L184.251 161.899L176.687 169.463C164.974 169.459 153.258 169.482 141.542 169.459L103.471 131.389L103.471 96.2474L110.131 89.588ZM1.19117 -35.3619L24.3171 -12.2359L33.0661 -20.9849L9.9401 -44.1108L1.19117 -35.3619Z" fill="#DCE6EB"/>
</g>
</svg>
